<svg width="16" height="16" viewBox="0 0 16 16" fill="none" xmlns="http://www.w3.org/2000/svg">
<g clip-path="url(#clip0_1305_1652)">
<path d="M9.85335 2.43533C10.097 2.19164 10.3863 1.99833 10.7047 1.86645C11.0231 1.73457 11.3644 1.66669 11.709 1.66669C12.0536 1.66669 12.3949 1.73457 12.7133 1.86645C13.0317 1.99833 13.321 2.19164 13.5647 2.43533C13.8084 2.67902 14.0017 2.96832 14.1336 3.28672C14.2654 3.60511 14.3333 3.94637 14.3333 4.291C14.3333 4.63562 14.2654 4.97688 14.1336 5.29527C14.0017 5.61367 13.8084 5.90297 13.5647 6.14666L11.1467 8.56466C10.8843 8.82713 10.5692 9.03096 10.2222 9.16267C9.8752 9.29438 9.50422 9.35098 9.13375 9.32874C8.76327 9.3065 8.40172 9.20592 8.07299 9.03364C7.74425 8.86136 7.4558 8.62131 7.22668 8.32933C7.14464 8.22501 7.02452 8.15755 6.89274 8.1418C6.76097 8.12605 6.62833 8.16329 6.52401 8.24533C6.4197 8.32737 6.35224 8.44749 6.33649 8.57926C6.32073 8.71104 6.35797 8.84368 6.44001 8.948C6.75652 9.35109 7.15493 9.68246 7.60894 9.92024C8.06295 10.158 8.56222 10.2968 9.07381 10.3274C9.5854 10.358 10.0977 10.2798 10.5768 10.0979C11.0559 9.91594 11.491 9.63446 11.8533 9.272L14.272 6.85333C14.6085 6.51679 14.8755 6.11727 15.0576 5.67757C15.2398 5.23786 15.3335 4.76659 15.3335 4.29066C15.3335 3.81473 15.2398 3.34346 15.0576 2.90376C14.8755 2.46405 14.6085 2.06453 14.272 1.728C13.9355 1.39146 13.536 1.12451 13.0963 0.942377C12.6565 0.760246 12.1853 0.666504 11.7093 0.666504C11.2334 0.666504 10.7621 0.760246 10.3224 0.942377C9.88274 1.12451 9.48321 1.39146 9.14668 1.728L7.14668 3.728C7.05556 3.82225 7.0051 3.94853 7.00617 4.07963C7.00725 4.21073 7.05978 4.33616 7.15244 4.42891C7.2451 4.52166 7.37048 4.5743 7.50158 4.5755C7.63268 4.5767 7.759 4.52636 7.85335 4.43533L9.85335 2.43533Z" fill="black"/>
<path d="M4.85333 7.43535C5.11573 7.17287 5.43083 6.96905 5.77782 6.83734C6.12481 6.70563 6.49579 6.64903 6.86626 6.67127C7.23674 6.69351 7.59828 6.79409 7.92702 6.96637C8.25576 7.13865 8.54421 7.3787 8.77333 7.67068C8.81395 7.72233 8.86435 7.76548 8.92165 7.79766C8.97894 7.82983 9.04202 7.85041 9.10726 7.85821C9.17251 7.86601 9.23866 7.86088 9.30193 7.84312C9.36519 7.82535 9.42434 7.7953 9.476 7.75468C9.52765 7.71406 9.5708 7.66366 9.60297 7.60636C9.63515 7.54907 9.65572 7.48599 9.66352 7.42074C9.67132 7.3555 9.66619 7.28935 9.64843 7.22608C9.63067 7.16281 9.60062 7.10367 9.55999 7.05201C9.24348 6.64892 8.84507 6.31755 8.39107 6.07976C7.93706 5.84198 7.43778 5.7032 6.92619 5.67258C6.4146 5.64196 5.90234 5.7202 5.42321 5.90213C4.94408 6.08406 4.50899 6.36555 4.14666 6.72801L1.728 9.14668C1.39146 9.48321 1.12451 9.88274 0.942377 10.3224C0.760246 10.7621 0.666504 11.2334 0.666504 11.7093C0.666504 12.1853 0.760246 12.6565 0.942377 13.0963C1.12451 13.536 1.39146 13.9355 1.728 14.272C2.06453 14.6085 2.46405 14.8755 2.90376 15.0576C3.34346 15.2398 3.81473 15.3335 4.29066 15.3335C4.76659 15.3335 5.23786 15.2398 5.67757 15.0576C6.11727 14.8755 6.51679 14.6085 6.85333 14.272L8.85333 12.272C8.90245 12.2262 8.94185 12.171 8.96918 12.1097C8.99651 12.0484 9.0112 11.9822 9.01239 11.915C9.01357 11.8479 9.00122 11.7812 8.97608 11.7189C8.95093 11.6567 8.9135 11.6001 8.86602 11.5527C8.81854 11.5052 8.76199 11.4677 8.69973 11.4426C8.63747 11.4175 8.57078 11.4051 8.50365 11.4063C8.43651 11.4075 8.3703 11.4222 8.30897 11.4495C8.24764 11.4768 8.19244 11.5162 8.14666 11.5653L6.14666 13.5653C5.90293 13.809 5.61358 14.0023 5.29515 14.1342C4.97671 14.2661 4.63542 14.3339 4.29076 14.3339C3.59469 14.3338 2.92715 14.0573 2.435 13.565C2.19131 13.3213 1.99801 13.0319 1.86614 12.7135C1.73427 12.3951 1.66642 12.0538 1.66645 11.7091C1.66651 11.013 1.94309 10.3455 2.43533 9.85335L4.85333 7.43535Z" fill="black"/>
</g>
<defs>
<clipPath id="clip0_1305_1652">
<rect width="16" height="16" fill="white"/>
</clipPath>
</defs>
</svg>
