<svg width="20" height="20" viewBox="0 0 20 20" fill="none" xmlns="http://www.w3.org/2000/svg">
<path d="M10.012 0.25C10.746 0.258 11.477 0.343 12.194 0.503C12.3465 0.53705 12.4846 0.617903 12.5889 0.734261C12.6933 0.850618 12.7587 0.996668 12.776 1.152L12.946 2.679C12.97 2.89428 13.0442 3.10093 13.1626 3.28231C13.281 3.46368 13.4404 3.61473 13.6278 3.72329C13.8153 3.83185 14.0256 3.89489 14.2419 3.90735C14.4581 3.9198 14.6743 3.88132 14.873 3.795L16.273 3.18C16.4152 3.11735 16.5734 3.10044 16.7257 3.13161C16.878 3.16278 17.0168 3.24049 17.123 3.354C18.1352 4.43501 18.8892 5.73153 19.328 7.146C19.3738 7.29474 19.3723 7.45406 19.3236 7.60189C19.2748 7.74971 19.1813 7.87871 19.056 7.971L17.815 8.887C17.6401 9.01517 17.4979 9.18273 17.3999 9.3761C17.3019 9.56947 17.2508 9.78321 17.2508 10C17.2508 10.2168 17.3019 10.4305 17.3999 10.6239C17.4979 10.8173 17.6401 10.9848 17.815 11.113L19.058 12.028C19.1835 12.1204 19.2772 12.2495 19.3259 12.3976C19.3747 12.5456 19.3761 12.7051 19.33 12.854C18.8913 14.2683 18.1377 15.5648 17.126 16.646C17.02 16.7595 16.8814 16.8372 16.7293 16.8686C16.5772 16.8999 16.4192 16.8833 16.277 16.821L14.871 16.204C14.6726 16.117 14.4565 16.0779 14.2402 16.09C14.0238 16.102 13.8134 16.1648 13.6259 16.2733C13.4383 16.3817 13.279 16.5328 13.1607 16.7143C13.0424 16.8958 12.9685 17.1026 12.945 17.318L12.775 18.844C12.758 18.9975 12.694 19.142 12.5918 19.2578C12.4896 19.3736 12.3542 19.4551 12.204 19.491C10.7555 19.8356 9.24642 19.8356 7.79797 19.491C7.64757 19.4553 7.5119 19.3739 7.4095 19.2581C7.30711 19.1423 7.24301 18.9976 7.22597 18.844L7.05697 17.32C7.03242 17.1053 6.95787 16.8994 6.83931 16.7187C6.72074 16.5381 6.56146 16.3877 6.37426 16.2798C6.18707 16.1718 5.97716 16.1093 5.76141 16.0972C5.54566 16.0851 5.33008 16.1237 5.13197 16.21L3.72597 16.826C3.58363 16.8885 3.42537 16.9053 3.27309 16.8739C3.12081 16.8426 2.98204 16.7647 2.87597 16.651C1.86404 15.5685 1.11081 14.2706 0.672971 12.855C0.626868 12.7061 0.628288 12.5466 0.677034 12.3986C0.72578 12.2505 0.819431 12.1214 0.944971 12.029L2.18797 11.113C2.36282 10.9848 2.50501 10.8173 2.60302 10.6239C2.70103 10.4305 2.75211 10.2168 2.75211 10C2.75211 9.78321 2.70103 9.56947 2.60302 9.3761C2.50501 9.18273 2.36282 9.01517 2.18797 8.887L0.944971 7.973C0.819431 7.88065 0.72578 7.75148 0.677034 7.60345C0.628288 7.45542 0.626868 7.29588 0.672971 7.147C1.11179 5.73253 1.8657 4.43601 2.87797 3.355C2.98416 3.24149 3.12298 3.16378 3.27526 3.13261C3.42753 3.10144 3.58573 3.11835 3.72797 3.181L5.12797 3.796C5.32699 3.88227 5.54347 3.92066 5.76002 3.90809C5.97657 3.89551 6.18715 3.83232 6.37484 3.7236C6.56254 3.61487 6.72212 3.46363 6.84076 3.28204C6.9594 3.10045 7.0338 2.89356 7.05797 2.678L7.22797 1.152C7.24513 0.996355 7.31058 0.849984 7.41513 0.733414C7.51968 0.616845 7.6581 0.535924 7.81097 0.502C8.53397 0.342213 9.27157 0.257762 10.012 0.25ZM10.012 1.75C9.55836 1.75533 9.10577 1.79444 8.65797 1.867L8.54797 2.844C8.49795 3.2933 8.34307 3.72457 8.09582 4.10305C7.84857 4.48152 7.51586 4.79662 7.12451 5.02294C6.73316 5.24927 6.29412 5.38049 5.84276 5.40603C5.3914 5.43158 4.94036 5.35073 4.52597 5.17L3.62697 4.776C3.05541 5.46989 2.60047 6.25209 2.27997 7.092L3.07697 7.679C3.44124 7.94659 3.73745 8.29613 3.94163 8.69938C4.14582 9.10262 4.25227 9.54825 4.25237 10.0002C4.25246 10.4522 4.14621 10.8979 3.94219 11.3012C3.73818 11.7046 3.44213 12.0543 3.07797 12.322L2.27897 12.91C2.59897 13.752 3.05497 14.536 3.62697 15.232L4.53197 14.835C4.94546 14.6545 5.39556 14.5735 5.84604 14.5987C6.29653 14.6239 6.7348 14.7545 7.12559 14.98C7.51638 15.2055 7.84876 15.5196 8.09599 15.897C8.34321 16.2745 8.49837 16.7047 8.54897 17.153L8.65797 18.137C9.54797 18.287 10.457 18.287 11.346 18.137L11.456 17.153C11.5058 16.7041 11.6604 16.2732 11.9074 15.895C12.1544 15.5169 12.4868 15.2021 12.8779 14.9761C13.269 14.7501 13.7077 14.6192 14.1586 14.594C14.6096 14.5688 15.0602 14.65 15.474 14.831L16.378 15.227C16.95 14.5325 17.4053 13.7496 17.726 12.909L16.928 12.321C16.5635 12.0535 16.2671 11.704 16.0628 11.3008C15.8585 10.8975 15.752 10.4518 15.7519 9.99975C15.7518 9.54769 15.8581 9.10194 16.0623 8.6986C16.2664 8.29525 16.5626 7.94562 16.927 7.678L17.724 7.091C17.4033 6.25068 16.948 5.46812 16.376 4.774L15.479 5.167C15.0647 5.34835 14.6136 5.42974 14.1621 5.40461C13.7106 5.37949 13.2713 5.24853 12.8798 5.02233C12.4882 4.79613 12.1553 4.48103 11.908 4.10245C11.6607 3.72388 11.5058 3.29245 11.456 2.843L11.347 1.867C10.9058 1.79489 10.4589 1.75578 10.012 1.75ZM9.99997 6.25C10.9945 6.25 11.9484 6.64509 12.6516 7.34835C13.3549 8.05161 13.75 9.00544 13.75 10C13.75 10.9946 13.3549 11.9484 12.6516 12.6517C11.9484 13.3549 10.9945 13.75 9.99997 13.75C9.00541 13.75 8.05158 13.3549 7.34832 12.6517C6.64506 11.9484 6.24997 10.9946 6.24997 10C6.24997 9.00544 6.64506 8.05161 7.34832 7.34835C8.05158 6.64509 9.00541 6.25 9.99997 6.25ZM9.99997 7.75C9.40323 7.75 8.83094 7.98705 8.40898 8.40901C7.98702 8.83097 7.74997 9.40326 7.74997 10C7.74997 10.5967 7.98702 11.169 8.40898 11.591C8.83094 12.0129 9.40323 12.25 9.99997 12.25C10.5967 12.25 11.169 12.0129 11.591 11.591C12.0129 11.169 12.25 10.5967 12.25 10C12.25 9.40326 12.0129 8.83097 11.591 8.40901C11.169 7.98705 10.5967 7.75 9.99997 7.75Z" fill="black"/>
</svg>
