<svg width="16" height="16" viewBox="0 0 16 16" fill="none" xmlns="http://www.w3.org/2000/svg">
<path d="M7.78346 10.8C7.04086 10.8 6.32867 10.505 5.80357 9.9799C5.27846 9.4548 4.98346 8.74261 4.98346 8C4.98346 7.25739 5.27846 6.5452 5.80357 6.0201C6.32867 5.495 7.04086 5.2 7.78346 5.2C8.52607 5.2 9.23826 5.495 9.76336 6.0201C10.2885 6.5452 10.5835 7.25739 10.5835 8C10.5835 8.74261 10.2885 9.4548 9.76336 9.9799C9.23826 10.505 8.52607 10.8 7.78346 10.8ZM13.7275 8.776C13.7595 8.52 13.7835 8.264 13.7835 8C13.7835 7.736 13.7595 7.472 13.7275 7.2L15.4155 5.896C15.5675 5.776 15.6075 5.56 15.5115 5.384L13.9115 2.616C13.8155 2.44 13.5995 2.368 13.4235 2.44L11.4315 3.24C11.0155 2.928 10.5835 2.656 10.0795 2.456L9.78346 0.336001C9.76721 0.241775 9.71813 0.156343 9.64492 0.0948426C9.5717 0.0333423 9.47908 -0.000255819 9.38346 1.46678e-06H6.18346C5.98346 1.46678e-06 5.81546 0.144002 5.78346 0.336001L5.48746 2.456C4.98346 2.656 4.55146 2.928 4.13546 3.24L2.14346 2.44C1.96746 2.368 1.75147 2.44 1.65547 2.616L0.0554652 5.384C-0.0485347 5.56 -0.000534642 5.776 0.151465 5.896L1.83947 7.2C1.80747 7.472 1.78347 7.736 1.78347 8C1.78347 8.264 1.80747 8.52 1.83947 8.776L0.151465 10.104C-0.000534642 10.224 -0.0485347 10.44 0.0554652 10.616L1.65547 13.384C1.75147 13.56 1.96746 13.624 2.14346 13.56L4.13546 12.752C4.55146 13.072 4.98346 13.344 5.48746 13.544L5.78346 15.664C5.81546 15.856 5.98346 16 6.18346 16H9.38346C9.58346 16 9.75146 15.856 9.78346 15.664L10.0795 13.544C10.5835 13.336 11.0155 13.072 11.4315 12.752L13.4235 13.56C13.5995 13.624 13.8155 13.56 13.9115 13.384L15.5115 10.616C15.6075 10.44 15.5675 10.224 15.4155 10.104L13.7275 8.776Z" fill="#0073E5"/>
</svg>
