<svg width="16" height="16" viewBox="0 0 16 16" fill="none" xmlns="http://www.w3.org/2000/svg">
<g clip-path="url(#clip0_206_3190)">
<path d="M1.5 1H14.5V0H1.5V1ZM14.5 1C14.7761 1 15 1.22386 15 1.5H16C16 0.671573 15.3284 0 14.5 0V1ZM15 1.5V14.5H16V1.5H15ZM15 14.5C15 14.7761 14.7761 15 14.5 15V16C15.3284 16 16 15.3284 16 14.5H15ZM14.5 15H1.5V16H14.5V15ZM1.5 15C1.22386 15 1 14.7761 1 14.5H0C0 15.3284 0.671573 16 1.5 16V15ZM1 14.5V1.5H0V14.5H1ZM1 1.5C1 1.22386 1.22386 1 1.5 1V0C0.671573 0 0 0.671573 0 1.5H1ZM0.5 6H15V5H0.5V6ZM0.5 11H15V10H0.5V11ZM10 0.5V15H11V0.5H10ZM5 0.5L5 15H6L6 0.5L5 0.5Z" fill="#FFFFFF"/>
</g>
<defs>
<clipPath id="clip0_206_3190">
<rect width="16" height="16" fill="white"/>
</clipPath>
</defs>
</svg>
