<svg width="64" height="64" viewBox="0 0 64 64" fill="none" xmlns="http://www.w3.org/2000/svg">
<rect width="64" height="64" fill="#001133"/>
<path d="M35.4885 52.4112L36.1173 56C37.3749 55.7907 38.6026 55.4617 39.7704 55.0729L38.5128 51.6336C37.5546 51.9626 36.5065 52.2318 35.4885 52.4112ZM23.6007 54.8636C24.7686 55.2822 25.9963 55.6411 27.224 55.8804L27.8528 52.2916C26.8047 52.0822 25.8166 51.8131 24.8284 51.4542L23.6007 54.8636ZM28.3918 51.9327C29.3799 52.1122 30.398 52.2019 31.446 52.2318V48.5832C30.6376 48.5533 29.8291 48.4636 29.0505 48.3439L28.3918 51.9327ZM34.7698 48.3738L35.3986 51.9626C36.4167 51.7832 37.4049 51.5439 38.3631 51.215L37.1054 47.7757C36.3568 48.0449 35.5783 48.2243 34.7698 48.3738ZM25.0081 51.0056C25.9663 51.3645 26.9245 51.6336 27.9426 51.843L28.5714 48.2542C27.7629 48.0748 27.0143 47.8654 26.2358 47.5963L25.0081 51.0056ZM37.5546 47.6561L38.8122 51.0953C39.7704 50.7365 40.7286 50.3178 41.6269 49.8393L39.8004 46.6692C39.0817 47.028 38.3331 47.357 37.5546 47.6561ZM45.1903 47.9551L47.5259 50.7365C48.514 49.929 49.4123 49.0318 50.2508 48.1047L47.466 45.772C46.7773 46.5196 46.0287 47.2673 45.1903 47.9551ZM13.36 47.686C14.1684 48.643 15.0668 49.5402 15.995 50.3477L18.3306 47.5664C17.5521 46.8785 16.8035 46.1308 16.1447 45.3533L13.36 47.686ZM18.9894 47.5364C19.7679 48.1944 20.6064 48.7925 21.4747 49.3009L23.3013 46.1308C22.6126 45.7121 21.9538 45.2336 21.355 44.7252L18.9894 47.5364ZM31.985 44.5159C31.9551 44.5159 31.9251 44.5159 31.8952 44.5159V48.1645C31.9251 48.1645 31.9551 48.1645 31.985 48.1645C32.7336 48.1645 33.5122 48.1047 34.2308 48.015L33.602 44.4262C33.063 44.4561 32.524 44.5159 31.985 44.5159ZM29.1104 47.8953C29.859 48.0449 30.6376 48.1047 31.446 48.1346V44.486C30.8771 44.4561 30.3082 44.3963 29.7392 44.3065L29.1104 47.8953ZM34.0511 44.3364L34.68 47.9252C35.4585 47.8056 36.2371 47.5963 36.9557 47.357L35.6981 43.9477C35.189 44.0972 34.6201 44.2467 34.0511 44.3364ZM26.4155 47.1776C27.1341 47.4467 27.8827 47.6561 28.6613 47.8056L29.2901 44.2168C28.7211 44.0972 28.1822 43.9477 27.6432 43.7383L26.4155 47.1776ZM42.5552 44.815L44.8908 47.5963C45.6694 46.9383 46.418 46.2206 47.1067 45.4729L44.3219 43.1402C43.7829 43.7084 43.184 44.2766 42.5552 44.815ZM36.1472 43.7981L37.4049 47.2075C38.1535 46.9383 38.8721 46.6393 39.5608 46.2505L37.7342 43.0804C37.2252 43.3794 36.6862 43.5888 36.1472 43.7981ZM23.9002 45.9813C24.559 46.3701 25.2776 46.6991 25.9963 46.9981L27.2539 43.5589C26.7149 43.3495 26.2059 43.0804 25.7268 42.8112L23.9002 45.9813ZM16.5041 45.0542C17.1628 45.8318 17.8815 46.5495 18.6301 47.2075L20.9657 44.4262C20.3668 43.8878 19.7979 43.3196 19.2888 42.7215L16.5041 45.0542ZM38.1235 42.9009L39.9501 46.0411C40.6388 45.6523 41.2976 45.2037 41.9264 44.7252L39.5908 41.9439C39.1117 42.3028 38.6326 42.6019 38.1235 42.9009ZM21.6245 44.3963C22.2233 44.9047 22.8522 45.3533 23.5109 45.772L25.3375 42.6019C24.8584 42.3028 24.4092 41.9738 23.9601 41.615L21.6245 44.3963ZM44.6213 42.7813L47.4061 45.114C48.0649 44.3364 48.6937 43.4991 49.2327 42.6318L46.0586 40.8075C45.6394 41.4953 45.1603 42.1533 44.6213 42.7813ZM39.9201 41.6748L42.2558 44.4561C42.8546 43.9477 43.4236 43.4093 43.9626 42.8112L41.1778 40.4785C40.7885 40.8972 40.3693 41.286 39.9201 41.6748ZM31.985 40.4187C31.9551 40.4187 31.9251 40.4187 31.8952 40.4187V44.0673C31.9251 44.0673 31.9551 44.0673 31.985 44.0673C32.4941 44.0673 33.0031 44.0374 33.5122 43.9776L32.8833 40.3888C32.5839 40.3888 32.2845 40.4187 31.985 40.4187ZM29.8291 43.8579C30.3681 43.9477 30.907 44.0075 31.446 44.0374V40.3888C31.1167 40.3589 30.7873 40.329 30.4579 40.2692L29.8291 43.8579ZM19.6482 42.4224C20.1572 43.0206 20.6962 43.5589 21.2651 44.0972L23.6007 41.3159C23.1815 40.9271 22.7923 40.5383 22.4329 40.0897L19.6482 42.4224ZM33.3325 40.2991L33.9613 43.8878C34.5003 43.7981 35.0393 43.6785 35.5483 43.4991L34.2907 40.0598C33.9913 40.1794 33.6619 40.2393 33.3325 40.2991ZM27.8228 43.3196C28.3319 43.4991 28.8409 43.6486 29.3799 43.7682L30.0087 40.1794C29.6793 40.0897 29.3799 40 29.0805 39.8804L27.8228 43.3196ZM34.7399 39.9402L35.9975 43.3495C36.5065 43.1701 37.0156 42.9607 37.4947 42.6916L35.6681 39.5215C35.3687 39.7009 35.0692 39.8206 34.7399 39.9402ZM25.9364 42.4224C26.4155 42.6916 26.8946 42.9308 27.3737 43.1402L28.6313 39.7009C28.3319 39.5813 28.0324 39.4318 27.7629 39.2523L25.9364 42.4224ZM36.0873 39.3421L37.9139 42.4822C38.393 42.2131 38.8422 41.914 39.2913 41.585L36.9557 38.8037C36.6563 39.0131 36.3868 39.1925 36.0873 39.3421ZM41.4772 40.1495L44.262 42.4822C44.771 41.8841 45.2502 41.2561 45.6694 40.5682L42.4953 38.7439C42.2258 39.2224 41.8665 39.7009 41.4772 40.1495ZM24.2595 41.2561C24.6787 41.615 25.0979 41.914 25.577 42.2131L27.4036 39.043C27.1341 38.8635 26.8646 38.6841 26.6251 38.4748L24.2595 41.2561ZM18.0312 40.1495C18.4205 40.8075 18.8696 41.4654 19.3487 42.0635L22.1335 39.7308C21.7742 39.2822 21.4747 38.8336 21.1753 38.3252L18.0312 40.1495ZM37.2851 38.5346L39.6207 41.3159C40.0399 40.957 40.4591 40.5981 40.8185 40.1794L38.0337 37.8467C37.7941 38.086 37.5546 38.3252 37.2851 38.5346ZM12.9707 39.043C13.33 40 13.7492 40.9271 14.2583 41.7944L17.4323 39.9701C17.043 39.2822 16.7137 38.5346 16.4142 37.7869L12.9707 39.043ZM22.7923 39.7907C23.1516 40.2093 23.5109 40.5981 23.9301 40.957L26.2657 38.1757C26.0262 37.9664 25.7867 37.7271 25.577 37.4579L22.7923 39.7907ZM42.7648 38.3551L45.9089 40.1794C46.2982 39.4916 46.6575 38.7738 46.957 38.0561L43.5434 36.8C43.3337 37.3383 43.0643 37.8467 42.7648 38.3551ZM38.3331 37.4878L41.1179 39.8206C41.4772 39.4019 41.8066 38.9533 42.106 38.5047L38.932 36.6804C38.7823 36.9794 38.5727 37.2486 38.3331 37.4878ZM16.8334 37.6374C17.1029 38.3551 17.4323 39.0729 17.8216 39.7607L20.9657 37.9364C20.6962 37.428 20.4566 36.9196 20.247 36.4112L16.8334 37.6374ZM21.5945 38.1159C21.864 38.5944 22.1634 39.0131 22.5228 39.4318L25.3075 37.0991C25.0979 36.8299 24.9183 36.5607 24.7686 36.2916L21.5945 38.1159ZM51.4485 39.1925L54.8621 40.4486C55.3113 39.2523 55.6407 38.0262 55.9102 36.7701L52.3169 36.1421C52.1073 37.1888 51.8079 38.2056 51.4485 39.1925ZM8 36.3813C8.23955 37.6374 8.56894 38.8336 8.95821 40.0299L12.3718 38.7738C12.0424 37.7869 11.7729 36.8 11.5633 35.7533L8 36.3813ZM47.5858 37.7869L51.0293 39.043C51.3886 38.086 51.6881 37.0991 51.8977 36.0523L48.3044 35.4243C48.0948 36.2318 47.8553 37.0093 47.5858 37.7869ZM39.2314 36.3215L42.3755 38.1458C42.645 37.6673 42.9145 37.1888 43.1241 36.6505L39.6806 35.3944C39.5608 35.7234 39.3812 36.0224 39.2314 36.3215ZM12.0424 35.6935C12.2221 36.7103 12.4916 37.6972 12.821 38.6243L16.2645 37.3682C15.995 36.6206 15.7854 35.843 15.6357 35.0355L12.0424 35.6935ZM20.6962 36.2617C20.8759 36.7701 21.1154 37.2486 21.355 37.7271L24.529 35.9028C24.3793 35.6037 24.2296 35.3047 24.1098 35.0056L20.6962 36.2617ZM43.723 36.3813L47.1666 37.6374C47.4361 36.8897 47.6756 36.1421 47.8253 35.3346L44.2321 34.7065C44.0823 35.2748 43.9326 35.843 43.723 36.3813ZM16.0848 34.9757C16.2346 35.7533 16.4442 36.5009 16.6837 37.2187L20.0973 35.9626C19.9177 35.4243 19.7679 34.886 19.6781 34.3178L16.0848 34.9757ZM39.8603 34.9757L43.2739 36.2318C43.4835 35.7234 43.6332 35.185 43.753 34.6168L40.1597 33.9888C40.0998 34.3178 39.98 34.6467 39.8603 34.9757ZM20.1273 34.2579C20.2171 34.7963 20.3668 35.3047 20.5465 35.8131L23.9601 34.557C23.8702 34.2579 23.7804 33.929 23.7205 33.6L20.1273 34.2579ZM15.8153 32.1944C15.8153 32.972 15.9052 33.7495 16.025 34.5271L19.6182 33.8991C19.5284 33.3308 19.4984 32.7925 19.4685 32.1944H15.8153ZM19.9177 32.1944C19.9177 32.7327 19.9775 33.271 20.0374 33.8093L23.6307 33.1813C23.5708 32.8523 23.5708 32.5234 23.5409 32.1944H19.9177ZM19.9177 31.7458H23.5708C23.5708 31.4168 23.6007 31.0878 23.6606 30.7589L20.0674 30.1308C19.9476 30.6393 19.9177 31.1776 19.9177 31.7458ZM15.8153 31.7458H19.4685C19.4685 31.1776 19.5284 30.6093 19.6182 30.0411L16.025 29.4131C15.8752 30.1607 15.8153 30.9383 15.8153 31.7458ZM11.6831 31.7458H15.3362C15.3362 30.9383 15.4261 30.1308 15.5459 29.3234L11.9526 28.6953C11.8029 29.6822 11.713 30.6991 11.6831 31.7458ZM40.0699 29.5327C40.1597 29.8617 40.2495 30.1907 40.3094 30.5495L43.9027 29.9215C43.8128 29.3533 43.6631 28.815 43.5134 28.2766L40.0699 29.5327ZM20.1273 29.6822L23.7205 30.3103C23.7804 29.9813 23.8702 29.6523 23.99 29.3533L20.5764 28.0972C20.3668 28.6056 20.2171 29.1439 20.1273 29.6822ZM43.9326 28.1271C44.1123 28.6953 44.262 29.2635 44.3518 29.8318L47.9451 29.2037C47.7954 28.3963 47.6157 27.6187 47.3462 26.871L43.9326 28.1271ZM16.0848 28.9645L19.6781 29.5925C19.7979 29.0243 19.9476 28.486 20.1273 27.9477L16.7137 26.6916C16.4442 27.4393 16.2346 28.1869 16.0848 28.9645ZM39.5009 28.157C39.6507 28.4561 39.8004 28.785 39.9201 29.114L43.3337 27.8579C43.1541 27.3196 42.9145 26.8112 42.645 26.3327L39.5009 28.157ZM20.6962 27.6785L24.1098 28.9346C24.2296 28.6355 24.3793 28.3065 24.529 28.0374L21.355 26.2131C21.1154 26.6617 20.9058 27.1701 20.6962 27.6785ZM47.7654 26.7514C48.0349 27.529 48.2146 28.3364 48.3643 29.1439L51.9576 28.5159C51.7779 27.4692 51.5084 26.4822 51.179 25.4953L47.7654 26.7514ZM12.0424 28.2467L15.6357 28.8748C15.7854 28.0673 15.995 27.2897 16.2645 26.5421L12.821 25.286C12.4916 26.243 12.2221 27.2299 12.0424 28.2467ZM38.6924 26.871C38.9021 27.1402 39.1117 27.4393 39.2913 27.7383L42.4354 25.914C42.1659 25.4355 41.8366 24.957 41.4772 24.5084L38.6924 26.871ZM21.6245 25.7944L24.7686 27.6187C24.9482 27.3196 25.1279 27.0505 25.3375 26.7813L22.5527 24.4486C22.2233 24.8673 21.8939 25.3159 21.6245 25.7944ZM43.0643 26.0935C43.3337 26.6019 43.5733 27.1402 43.7829 27.7084L47.1965 26.4523C46.927 25.7047 46.5976 24.957 46.2084 24.2692L43.0643 26.0935ZM16.8334 26.2729L20.247 27.529C20.4566 26.9907 20.6962 26.4822 20.9657 25.9738L17.8216 24.1495C17.4623 24.8075 17.1329 25.5252 16.8334 26.2729ZM51.6282 25.3458C51.9576 26.3327 52.2271 27.3794 52.4067 28.4262L56 27.7981C55.7904 26.5121 55.461 25.286 55.0418 24.0897L51.6282 25.3458ZM8 27.529L11.5933 28.157C11.7729 27.1103 12.0724 26.0935 12.4017 25.1364L8.95821 23.8804C8.56894 25.0766 8.23955 26.2729 8 27.529ZM37.6744 25.7645C37.9439 26.0037 38.1834 26.243 38.393 26.5121L41.1778 24.1794C40.8185 23.7607 40.4292 23.3421 40.01 22.9832L37.6744 25.7645ZM22.8522 24.0897L25.6369 26.4224C25.8465 26.1533 26.0861 25.914 26.3556 25.7047L24.02 22.9234C23.6007 23.2822 23.2115 23.671 22.8522 24.0897ZM46.5976 24.0598C46.9869 24.7776 47.3462 25.5252 47.6157 26.3327L51.0593 25.0766C50.6999 24.0897 50.2807 23.1327 49.7717 22.2355L46.5976 24.0598ZM41.8366 24.2393C42.1959 24.6878 42.5253 25.1963 42.8247 25.7047L45.9688 23.8804C45.5795 23.1925 45.1004 22.5346 44.6213 21.9065L41.8366 24.2393ZM18.0611 23.7308L21.2052 25.5551C21.5047 25.0766 21.8341 24.5981 22.1934 24.1495L19.4086 21.8168C18.9295 22.415 18.4803 23.0729 18.0611 23.7308ZM36.4766 24.8673C36.776 25.0467 37.0455 25.2561 37.345 25.4953L39.6806 22.714C39.2614 22.3551 38.7823 22.0262 38.3032 21.7271L36.4766 24.8673ZM24.3493 22.6243L26.685 25.4056C26.9545 25.1963 27.224 24.9869 27.5234 24.8075L25.6968 21.6374C25.2177 21.9664 24.7686 22.2953 24.3493 22.6243ZM35.1291 24.1794C35.4585 24.2991 35.7579 24.4486 36.0873 24.628L37.9139 21.4878C37.4348 21.2187 36.9258 20.9794 36.3868 20.7701L35.1291 24.1794ZM26.0861 21.4579L27.9127 24.5981C28.2121 24.4187 28.5115 24.2991 28.8409 24.1495L27.5833 20.7103C27.0742 20.9495 26.5951 21.1888 26.0861 21.4579ZM33.6918 23.7308C34.0512 23.7907 34.3805 23.9103 34.7099 24L35.9676 20.5907C35.4286 20.4112 34.8896 20.2617 34.3506 20.1421L33.6918 23.7308ZM28.0324 20.5907L29.2901 24C29.6195 23.8804 29.9488 23.7907 30.2782 23.7308L29.6494 20.1421C29.0805 20.2617 28.5415 20.4112 28.0324 20.5907ZM30.0986 20.0523L30.7274 23.6411C31.0568 23.5813 31.4161 23.5514 31.7754 23.5514V19.9327C31.1765 19.9327 30.6376 19.9626 30.0986 20.0523ZM32.2246 23.5514C32.5839 23.5514 32.9133 23.5813 33.2726 23.6411L33.9014 20.0523C33.3624 19.9626 32.7935 19.9327 32.2246 19.9028V23.5514ZM40.3094 22.6243C40.7586 23.0131 41.1478 23.4318 41.5371 23.8804L44.3219 21.5477C43.8129 20.9495 43.2439 20.3514 42.645 19.843L40.3094 22.6243ZM19.708 21.4579L22.4928 23.7907C22.8821 23.3421 23.2714 22.9533 23.7205 22.5645L21.3849 19.7832C20.786 20.2916 20.2171 20.8598 19.708 21.4579ZM14.4978 21.6972L17.6719 23.5215C18.0911 22.8336 18.5402 22.1458 19.0792 21.5178L16.2944 19.185C15.6057 19.9626 15.0368 20.8 14.4978 21.6972ZM38.5427 21.3084C39.0518 21.6075 39.5309 21.9664 39.98 22.3252L42.3157 19.5439C41.6868 19.0355 41.058 18.557 40.3693 18.1383L38.5427 21.3084ZM21.7143 19.4841L24.0499 22.2654C24.4991 21.9065 24.9782 21.5776 25.4573 21.2486L23.6307 18.1084C22.9719 18.5271 22.3132 18.9757 21.7143 19.4841ZM36.5365 20.3215C37.0755 20.5308 37.6145 20.8 38.1235 21.0692L39.9501 17.929C39.2614 17.5402 38.5427 17.1813 37.7941 16.9121L36.5365 20.3215ZM24.0499 17.8991L25.8765 21.0393C26.3855 20.7701 26.8946 20.5009 27.4635 20.2916L26.2059 16.8822C25.4573 17.1813 24.7386 17.5103 24.0499 17.8991ZM42.9445 19.4841C43.5733 20.0224 44.1422 20.6206 44.6812 21.2486L47.466 18.9159C46.8072 18.1084 46.0586 17.3907 45.2801 16.7028L42.9445 19.4841ZM16.5639 18.8262L19.3487 21.1589C19.8877 20.5308 20.4566 19.9626 21.0855 19.4243L18.7498 16.643C17.9414 17.3308 17.2227 18.0486 16.5639 18.8262ZM34.4105 19.6935C34.9794 19.8131 35.5483 19.9626 36.1173 20.1421L37.3749 16.7327C36.6263 16.4636 35.8478 16.2542 35.0692 16.1047L34.4105 19.6935ZM26.6251 16.7327L27.8827 20.1421C28.4217 19.9626 28.9906 19.7832 29.5596 19.6935L28.9308 16.1047C28.1522 16.2542 27.3737 16.4636 26.6251 16.7327ZM29.3799 16.015L30.0087 19.6037C30.5777 19.514 31.1765 19.4542 31.7455 19.4542V15.8056C30.937 15.8355 30.1585 15.8953 29.3799 16.015ZM32.2246 19.4542C32.8235 19.4542 33.3924 19.514 33.9613 19.6037L34.5901 16.015C33.8116 15.8953 33.0031 15.8056 32.1946 15.8056V19.4542H32.2246ZM40.5789 17.7495C41.2976 18.1682 41.9563 18.6467 42.6151 19.185L44.9507 16.4037C44.1422 15.7458 43.3038 15.1477 42.4055 14.6093L40.5789 17.7495ZM45.5795 16.3439C46.388 17.0318 47.1366 17.8093 47.8253 18.6168L50.6101 16.2841C49.7717 15.2972 48.8734 14.4 47.9152 13.5626L45.5795 16.3439ZM13.4198 16.1944L16.2046 18.5271C16.8933 17.7196 17.6419 16.972 18.4205 16.2841L16.0848 13.5028C15.1266 14.3402 14.2283 15.2374 13.4198 16.1944ZM21.9838 14.3402L23.8104 17.5103C24.529 17.1215 25.2477 16.7626 26.0262 16.4636L24.7686 13.0243C23.8104 13.4131 22.8821 13.8318 21.9838 14.3402ZM35.1291 15.6561C35.9376 15.8056 36.7461 16.0449 37.5246 16.314L38.7823 12.8748C37.8241 12.5159 36.806 12.2467 35.7879 12.0673L35.1291 15.6561ZM25.2177 12.8748L26.4754 16.314C27.2539 16.0449 28.0324 15.8355 28.8409 15.686L28.2121 12.0972C27.194 12.2467 26.1759 12.5458 25.2177 12.8748ZM32.2246 15.357C33.063 15.357 33.8715 15.4467 34.68 15.5664L35.3088 11.9776C34.2907 11.7981 33.2726 11.7084 32.2246 11.7084V15.357ZM35.8478 11.6187C36.8958 11.828 37.9439 12.0972 38.932 12.4561L40.1896 9.04673C38.9919 8.62804 37.7642 8.29907 36.5065 8.05981L35.8478 11.6187ZM23.8104 9.01682L25.068 12.4262C26.0561 12.0673 27.0742 11.7981 28.1522 11.5888L27.5234 8C26.2358 8.26916 25.0081 8.59813 23.8104 9.01682Z" fill="url(#paint0_radial_7079_16097)"/>
<defs>
<radialGradient id="paint0_radial_7079_16097" cx="0" cy="0" r="1" gradientUnits="userSpaceOnUse" gradientTransform="translate(32.0037 32.0122) scale(24.0131 23.9832)">
<stop offset="0.350377" stop-color="#F3EB27"/>
<stop offset="0.502886" stop-color="#F3EB27"/>
<stop offset="0.511865" stop-color="#9EE444"/>
<stop offset="0.675908" stop-color="#9EE444"/>
<stop offset="0.691222" stop-color="#10D99D"/>
<stop offset="0.84347" stop-color="#10D99D"/>
<stop offset="0.853757" stop-color="#00AEFF"/>
<stop offset="1" stop-color="#00AEFF"/>
</radialGradient>
</defs>
</svg>
