<svg width="41" height="41" viewBox="0 0 41 41" fill="none" xmlns="http://www.w3.org/2000/svg">
<path d="M22.9372 37.0581L23.4619 40.0527C24.5113 39.878 25.5358 39.6035 26.5102 39.2791L25.4608 36.4092C24.6612 36.6838 23.7867 36.9083 22.9372 37.0581ZM13.0177 39.1044C13.9922 39.4537 15.0166 39.7532 16.0411 39.9528L16.5658 36.9583C15.6912 36.7836 14.8667 36.559 14.0422 36.2595L13.0177 39.1044ZM17.0155 36.6588C17.8401 36.8085 18.6896 36.8834 19.5641 36.9083V33.8638C18.8895 33.8389 18.2148 33.764 17.5652 33.6642L17.0155 36.6588ZM22.3375 33.6892L22.8622 36.6837C23.7118 36.534 24.5363 36.3344 25.3359 36.0599L24.2865 33.1901C23.6618 33.4147 23.0122 33.5644 22.3375 33.6892ZM14.1921 35.8852C14.9916 36.1847 15.7912 36.4092 16.6407 36.5839L17.1654 33.5893C16.4908 33.4396 15.8662 33.2649 15.2165 33.0403L14.1921 35.8852ZM24.6612 33.0902L25.7107 35.9601C26.5102 35.6606 27.3098 35.3112 28.0593 34.912L26.5352 32.2667C25.9355 32.5662 25.3109 32.8407 24.6612 33.0902ZM31.0327 33.3398L32.9816 35.6606C33.8061 34.9868 34.5557 34.2382 35.2553 33.4646L32.9316 31.5181C32.357 32.1419 31.7323 32.7658 31.0327 33.3398ZM4.47251 33.1152C5.14713 33.9138 5.89671 34.6624 6.67128 35.3362L8.62019 33.0154C7.97055 32.4414 7.34591 31.8175 6.79621 31.1687L4.47251 33.1152ZM9.16989 32.9904C9.81953 33.5394 10.5191 34.0385 11.2437 34.4628L12.7679 31.8175C12.1932 31.4682 11.6435 31.0689 11.1438 30.6447L9.16989 32.9904ZM20.0138 30.47C19.9889 30.47 19.9639 30.47 19.9389 30.47V33.5145C19.9639 33.5145 19.9889 33.5145 20.0138 33.5145C20.6385 33.5145 21.2881 33.4646 21.8878 33.3897L21.3631 30.3951C20.9133 30.4201 20.4636 30.47 20.0138 30.47ZM17.6152 33.2899C18.2398 33.4147 18.8895 33.4646 19.5641 33.4895V30.445C19.0894 30.4201 18.6146 30.3701 18.1399 30.2953L17.6152 33.2899ZM21.7379 30.3202L22.2626 33.3148C22.9122 33.215 23.5619 33.0403 24.1615 32.8407L23.1121 29.9958C22.6873 30.1206 22.2126 30.2454 21.7379 30.3202ZM15.3664 32.691C15.9661 32.9156 16.5907 33.0902 17.2404 33.215L17.7651 30.2204C17.2904 30.1206 16.8406 29.9958 16.3909 29.8211L15.3664 32.691ZM28.8339 30.7195L30.7828 33.0403C31.4325 32.4913 32.0571 31.8924 32.6318 31.2685L30.3081 29.322C29.8584 29.7962 29.3586 30.2703 28.8339 30.7195ZM23.4869 29.8711L24.5363 32.7159C25.161 32.4913 25.7606 32.2418 26.3353 31.9174L24.8112 29.2721C24.3864 29.5217 23.9366 29.6964 23.4869 29.8711ZM13.2676 31.6928C13.8173 32.0172 14.417 32.2917 15.0166 32.5412L16.066 29.6714C15.6163 29.4967 15.1915 29.2721 14.7918 29.0475L13.2676 31.6928ZM7.09604 30.9192C7.64574 31.568 8.2454 32.1669 8.87005 32.7159L10.819 30.3951C10.3192 29.9459 9.84451 29.4718 9.41975 28.9727L7.09604 30.9192ZM25.136 29.1224L26.6601 31.7427C27.2348 31.4183 27.7845 31.0439 28.3092 30.6447L26.3603 28.3238C25.9605 28.6233 25.5607 28.8729 25.136 29.1224ZM11.3687 30.3702C11.8684 30.7944 12.3931 31.1687 12.9428 31.5181L14.4669 28.8729C14.0672 28.6233 13.6924 28.3488 13.3176 28.0493L11.3687 30.3702ZM30.558 29.0226L32.8817 30.9691C33.4314 30.3202 33.9561 29.6215 34.4058 28.8978L31.7573 27.3756C31.4075 27.9495 31.0077 28.4985 30.558 29.0226ZM26.6351 28.0993L28.5841 30.4201C29.0838 29.9958 29.5585 29.5466 30.0083 29.0475L27.6846 27.1011C27.3597 27.4504 27.0099 27.7748 26.6351 28.0993ZM20.0138 27.0511C19.9889 27.0511 19.9639 27.0511 19.9389 27.0511V30.0956C19.9639 30.0956 19.9889 30.0956 20.0138 30.0956C20.4386 30.0956 20.8634 30.0707 21.2881 30.0208L20.7634 27.0262C20.5136 27.0262 20.2637 27.0511 20.0138 27.0511ZM18.2148 29.921C18.6646 29.9958 19.1143 30.0457 19.5641 30.0707V27.0262C19.2892 27.0012 19.0144 26.9763 18.7395 26.9264L18.2148 29.921ZM9.71958 28.7231C10.1443 29.2222 10.5941 29.6714 11.0688 30.1206L13.0177 27.7998C12.6679 27.4754 12.3431 27.151 12.0433 26.7766L9.71958 28.7231ZM21.1382 26.9513L21.6629 29.9459C22.1127 29.8711 22.5624 29.7712 22.9872 29.6215L21.9378 26.7517C21.6879 26.8515 21.4131 26.9014 21.1382 26.9513ZM16.5408 29.4718C16.9655 29.6215 17.3903 29.7463 17.8401 29.8461L18.3648 26.8515C18.0899 26.7766 17.8401 26.7018 17.5902 26.602L16.5408 29.4718ZM22.3126 26.6519L23.362 29.4967C23.7867 29.347 24.2115 29.1723 24.6113 28.9477L23.0871 26.3025C22.8373 26.4522 22.5874 26.552 22.3126 26.6519ZM14.9667 28.7231C15.3664 28.9477 15.7662 29.1474 16.166 29.322L17.2154 26.4522C16.9655 26.3524 16.7157 26.2276 16.4908 26.0779L14.9667 28.7231ZM23.4369 26.1528L24.9611 28.773C25.3609 28.5484 25.7356 28.2989 26.1104 28.0244L24.1615 25.7036C23.9117 25.8783 23.6868 26.028 23.4369 26.1528ZM27.9344 26.8266L30.2581 28.773C30.6829 28.2739 31.0827 27.7499 31.4325 27.1759L28.7839 25.6537C28.5591 26.0529 28.2592 26.4522 27.9344 26.8266ZM13.5674 27.7499C13.9172 28.0493 14.267 28.2989 14.6668 28.5484L16.191 25.9032C15.9661 25.7535 15.7412 25.6038 15.5413 25.4291L13.5674 27.7499ZM8.37033 26.8266C8.69515 27.3756 9.06994 27.9246 9.46972 28.4237L11.7934 26.4772C11.4936 26.1029 11.2437 25.7285 10.9939 25.3043L8.37033 26.8266ZM24.4364 25.479L26.3853 27.7998C26.7351 27.5003 27.0849 27.2009 27.3847 26.8515L25.061 24.905C24.8611 25.1047 24.6612 25.3043 24.4364 25.479ZM4.14769 25.9032C4.44752 26.7018 4.79733 27.4754 5.22209 28.1991L7.87061 26.6768C7.54579 26.1029 7.27095 25.479 7.02109 24.8551L4.14769 25.9032ZM12.3431 26.5271C12.643 26.8765 12.9428 27.2009 13.2926 27.5003L15.2415 25.1795C15.0416 25.0048 14.8417 24.8052 14.6668 24.5806L12.3431 26.5271ZM29.0088 25.3293L31.6324 26.8515C31.9572 26.2775 32.257 25.6786 32.5069 25.0797L29.6585 24.0316C29.4836 24.4808 29.2587 24.905 29.0088 25.3293ZM25.3109 24.6056L27.6346 26.552C27.9344 26.2027 28.2093 25.8284 28.4591 25.454L25.8106 23.9318C25.6857 24.1813 25.5108 24.4059 25.3109 24.6056ZM7.37089 24.7303C7.59576 25.3293 7.87061 25.9282 8.19543 26.5021L10.819 24.9799C10.5941 24.5557 10.3942 24.1314 10.2193 23.7072L7.37089 24.7303ZM11.3437 25.1296C11.5685 25.5289 11.8184 25.8783 12.1182 26.2276L14.4419 24.2811C14.267 24.0566 14.1171 23.832 13.9922 23.6074L11.3437 25.1296ZM36.2548 26.028L39.1032 27.0761C39.478 26.0779 39.7528 25.0547 39.9777 24.0066L36.9794 23.4826C36.8045 24.356 36.5546 25.2045 36.2548 26.028ZM0 23.6822C0.199889 24.7303 0.474738 25.7285 0.799557 26.7267L3.64797 25.6786C3.37312 24.8551 3.14825 24.0316 2.97334 23.1582L0 23.6822ZM33.0316 24.8551L35.905 25.9032C36.2048 25.1047 36.4547 24.2811 36.6296 23.4077L33.6312 22.8837C33.4563 23.5575 33.2565 24.2063 33.0316 24.8551ZM26.0605 23.6323L28.684 25.1546C28.9089 24.7553 29.1338 24.356 29.3087 23.9068L26.4353 22.8587C26.3353 23.1332 26.1854 23.3828 26.0605 23.6323ZM3.37312 23.1083C3.52303 23.9567 3.74791 24.7802 4.02276 25.5539L6.89615 24.5057C6.67128 23.8819 6.49638 23.233 6.37145 22.5593L3.37312 23.1083ZM10.5941 23.5824C10.744 24.0066 10.9439 24.4059 11.1438 24.8052L13.7923 23.2829C13.6674 23.0334 13.5424 22.7839 13.4425 22.5343L10.5941 23.5824ZM29.8084 23.6822L32.6818 24.7303C32.9067 24.1065 33.1065 23.4826 33.2315 22.8088L30.2331 22.2848C30.1082 22.7589 29.9833 23.233 29.8084 23.6822ZM6.74624 22.5093C6.87117 23.1582 7.04607 23.782 7.24596 24.381L10.0944 23.3329C9.94446 22.8837 9.81952 22.4345 9.74456 21.9603L6.74624 22.5093ZM26.5852 22.5093L29.4336 23.5575C29.6085 23.1332 29.7334 22.684 29.8334 22.2099L26.835 21.6858C26.7851 21.9603 26.6851 22.2348 26.5852 22.5093ZM10.1194 21.9104C10.1943 22.3596 10.3192 22.7839 10.4692 23.2081L13.3176 22.16C13.2426 21.9104 13.1677 21.6359 13.1177 21.3614L10.1194 21.9104ZM6.52136 20.1885C6.52136 20.8374 6.59632 21.4862 6.69627 22.135L9.69459 21.611C9.61964 21.1368 9.59465 20.6876 9.56966 20.1885H6.52136ZM9.94445 20.1885C9.94445 20.6377 9.99443 21.0869 10.0444 21.5361L13.0427 21.0121C12.9928 20.7375 12.9928 20.463 12.9678 20.1885H9.94445ZM9.94445 19.8142H12.9928C12.9928 19.5397 13.0177 19.2652 13.0677 18.9907L10.0694 18.4666C9.96944 18.8909 9.94445 19.3401 9.94445 19.8142ZM6.52136 19.8142H9.56966C9.56966 19.3401 9.61964 18.8659 9.69459 18.3918L6.69627 17.8677C6.57134 18.4916 6.52136 19.1404 6.52136 19.8142ZM3.07329 19.8142H6.12159C6.12159 19.1404 6.19655 18.4666 6.29649 17.7929L3.29816 17.2688C3.17323 18.0923 3.09827 18.9408 3.07329 19.8142ZM26.7601 17.9676C26.835 18.2421 26.91 18.5166 26.96 18.816L29.9583 18.292C29.8833 17.8178 29.7584 17.3686 29.6335 16.9194L26.7601 17.9676ZM10.1194 18.0923L13.1177 18.6164C13.1677 18.3419 13.2426 18.0674 13.3426 17.8178L10.4941 16.7697C10.3192 17.1939 10.1943 17.6431 10.1194 18.0923ZM29.9833 16.7947C30.1332 17.2688 30.2581 17.743 30.3331 18.2171L33.3314 17.693C33.2065 17.0193 33.0566 16.3704 32.8317 15.7466L29.9833 16.7947ZM6.74624 17.4934L9.74456 18.0175C9.84451 17.5433 9.96944 17.0941 10.1194 16.6449L7.27095 15.5968C7.04607 16.2207 6.87117 16.8446 6.74624 17.4934ZM26.2853 16.8196C26.4103 17.0692 26.5352 17.3437 26.6351 17.6182L29.4836 16.5701C29.3336 16.1209 29.1338 15.6967 28.9089 15.2974L26.2853 16.8196ZM10.5941 16.4203L13.4425 17.4685C13.5424 17.2189 13.6674 16.9444 13.7923 16.7198L11.1438 15.1976C10.9439 15.5719 10.769 15.9961 10.5941 16.4203ZM33.1815 15.6467C33.4064 16.2956 33.5563 16.9694 33.6812 17.6431L36.6795 17.1191C36.5296 16.2457 36.3048 15.4221 36.0299 14.5986L33.1815 15.6467ZM3.37312 16.8945L6.37145 17.4185C6.49638 16.7448 6.67128 16.0959 6.89615 15.4721L4.02276 14.4239C3.74791 15.2225 3.52303 16.046 3.37312 16.8945ZM25.6107 15.7466C25.7856 15.9712 25.9605 16.2207 26.1104 16.4703L28.734 14.948C28.5091 14.5487 28.2343 14.1494 27.9344 13.7751L25.6107 15.7466ZM11.3687 14.8482L13.9922 16.3704C14.1421 16.1209 14.292 15.8963 14.4669 15.6717L12.1432 13.7252C11.8684 14.0746 11.5935 14.4489 11.3687 14.8482ZM29.2587 15.0977C29.4836 15.522 29.6834 15.9712 29.8583 16.4453L32.7068 15.3972C32.4819 14.7733 32.207 14.1494 31.8822 13.5755L29.2587 15.0977ZM7.37089 15.2475L10.2193 16.2956C10.3942 15.8464 10.5941 15.4221 10.819 14.9979L8.19543 13.4757C7.8956 14.0247 7.62075 14.6236 7.37089 15.2475ZM36.4047 14.4739C36.6795 15.2974 36.9044 16.1708 37.0543 17.0442L40.0527 16.5202C39.8778 15.4471 39.6029 14.4239 39.2531 13.4258L36.4047 14.4739ZM0 16.2956L2.99833 16.8196C3.14824 15.9462 3.39811 15.0977 3.67295 14.2992L0.799557 13.2511C0.474738 14.2493 0.199889 15.2475 0 16.2956ZM24.7612 14.8232C24.9861 15.0229 25.186 15.2225 25.3609 15.4471L27.6846 13.5006C27.3847 13.1512 27.0599 12.8019 26.7101 12.5024L24.7612 14.8232ZM12.3931 13.4258L14.7168 15.3722C14.8917 15.1476 15.0916 14.948 15.3165 14.7733L13.3675 12.4525C13.0177 12.752 12.6929 13.0764 12.3931 13.4258ZM32.207 13.4008C32.5319 13.9997 32.8317 14.6236 33.0566 15.2974L35.93 14.2493C35.6301 13.4258 35.2803 12.6272 34.8556 11.8785L32.207 13.4008ZM28.2343 13.5505C28.5341 13.9249 28.8089 14.3491 29.0588 14.7733L31.6823 13.2511C31.3575 12.6771 30.9577 12.1281 30.558 11.604L28.2343 13.5505ZM8.39532 13.1263L11.0189 14.6485C11.2687 14.2493 11.5436 13.85 11.8434 13.4757L9.51969 11.5292C9.11991 12.0283 8.74512 12.5773 8.39532 13.1263ZM23.7617 14.0746C24.0116 14.2243 24.2365 14.399 24.4863 14.5986L26.4353 12.2778C26.0855 11.9784 25.6857 11.7039 25.2859 11.4543L23.7617 14.0746ZM13.6424 12.203L15.5913 14.5238C15.8162 14.3491 16.0411 14.1744 16.2909 14.0247L14.7668 11.3794C14.367 11.654 13.9922 11.9285 13.6424 12.203ZM22.6374 13.5006C22.9122 13.6004 23.1621 13.7252 23.4369 13.8749L24.9611 11.2547C24.5613 11.0301 24.1365 10.8304 23.6868 10.6558L22.6374 13.5006ZM15.0916 11.2297L16.6157 13.85C16.8656 13.7003 17.1155 13.6004 17.3903 13.4757L16.3409 10.6058C15.9161 10.8055 15.5163 11.0051 15.0916 11.2297ZM21.438 13.1263C21.7379 13.1762 22.0127 13.276 22.2876 13.3509L23.337 10.506C22.8872 10.3563 22.4375 10.2315 21.9877 10.1317L21.438 13.1263ZM16.7157 10.506L17.7651 13.3509C18.0399 13.2511 18.3148 13.1762 18.5896 13.1263L18.0649 10.1317C17.5902 10.2315 17.1404 10.3563 16.7157 10.506ZM18.4397 10.0568L18.9644 13.0514C19.2393 13.0015 19.5391 12.9766 19.8389 12.9766V9.95702C19.3392 9.95702 18.8895 9.98197 18.4397 10.0568ZM20.2137 12.9766C20.5136 12.9766 20.7884 13.0015 21.0882 13.0514L21.6129 10.0568C21.1632 9.98197 20.6885 9.95702 20.2137 9.93206V12.9766ZM26.96 12.203C27.3348 12.5274 27.6596 12.8767 27.9844 13.2511L30.3081 11.3046C29.8833 10.8055 29.4086 10.3064 28.9089 9.88215L26.96 12.203ZM9.76955 11.2297L12.0933 13.1762C12.4181 12.8019 12.7429 12.4775 13.1177 12.1531L11.1688 9.83224C10.6691 10.2565 10.1943 10.7306 9.76955 11.2297ZM5.42198 11.4294L8.0705 12.9516C8.4203 12.3776 8.79509 11.8037 9.24484 11.2796L6.92114 9.33314C6.34646 9.98197 5.87173 10.6807 5.42198 11.4294ZM25.4858 11.1049C25.9105 11.3545 26.3103 11.654 26.6851 11.9534L28.634 9.6326C28.1093 9.20837 27.5846 8.80909 27.0099 8.45972L25.4858 11.1049ZM11.4436 9.58269L13.3925 11.9035C13.7673 11.604 14.1671 11.3295 14.5669 11.055L13.0427 8.43477C12.493 8.78414 11.9433 9.15846 11.4436 9.58269ZM23.8117 10.2814C24.2615 10.4561 24.7112 10.6807 25.136 10.9053L26.6601 8.28504C26.0855 7.96062 25.4858 7.66116 24.8611 7.43657L23.8117 10.2814ZM13.3925 8.26008L14.9167 10.8803C15.3414 10.6558 15.7662 10.4312 16.2409 10.2565L15.1915 7.41161C14.5669 7.66116 13.9672 7.93567 13.3925 8.26008ZM29.1587 9.58269C29.6834 10.0319 30.1582 10.531 30.6079 11.055L32.9316 9.10855C32.3819 8.43477 31.7573 7.83585 31.1077 7.26188L29.1587 9.58269ZM7.14602 9.03368L9.46972 10.9802C9.91947 10.4561 10.3942 9.98197 10.9189 9.53278L8.97 7.21197C8.29538 7.78594 7.69571 8.38486 7.14602 9.03368ZM22.0377 9.75738C22.5124 9.8572 22.9872 9.98197 23.4619 10.1317L24.5113 7.28684C23.8867 7.06225 23.237 6.88756 22.5874 6.76279L22.0377 9.75738ZM15.5413 7.28684L16.5907 10.1317C17.0405 9.98197 17.5152 9.83224 17.99 9.75738L17.4653 6.76279C16.8156 6.88756 16.166 7.06225 15.5413 7.28684ZM17.8401 6.68792L18.3648 9.68251C18.8395 9.60765 19.3392 9.55774 19.8139 9.55774V6.51324C19.1393 6.53819 18.4897 6.5881 17.8401 6.68792ZM20.2137 9.55774C20.7134 9.55774 21.1882 9.60765 21.6629 9.68251L22.1876 6.68792C21.538 6.5881 20.8634 6.51324 20.1887 6.51324V9.55774H20.2137ZM27.1848 8.13531C27.7845 8.48468 28.3342 8.88395 28.8839 9.33314L30.8328 7.01234C30.1582 6.46333 29.4586 5.96423 28.709 5.51504L27.1848 8.13531ZM31.3575 6.96243C32.0321 7.53639 32.6568 8.18522 33.2315 8.859L35.5552 6.91252C34.8556 6.089 34.106 5.34036 33.3064 4.64162L31.3575 6.96243ZM4.52248 6.83765L6.84618 8.78413C7.42086 8.11035 8.04551 7.48648 8.69515 6.91252L6.74624 4.59171C5.94668 5.29045 5.1971 6.03909 4.52248 6.83765ZM11.6685 5.29045L13.1926 7.93567C13.7923 7.61125 14.392 7.31179 15.0416 7.06225L13.9922 4.19243C13.1926 4.51684 12.4181 4.86621 11.6685 5.29045ZM22.6374 6.38846C23.312 6.51324 23.9866 6.71288 24.6363 6.93747L25.6857 4.06765C24.8861 3.76819 24.0366 3.5436 23.1871 3.39387L22.6374 6.38846ZM14.367 4.06765L15.4164 6.93747C16.066 6.71288 16.7157 6.53819 17.3903 6.41342L16.8656 3.41883C16.0161 3.5436 15.1665 3.79315 14.367 4.06765ZM20.2137 6.13891C20.9133 6.13891 21.588 6.21378 22.2626 6.3136L22.7873 3.31901C21.9378 3.16928 21.0882 3.09441 20.2137 3.09441V6.13891ZM23.237 3.01955C24.1116 3.19423 24.9861 3.41883 25.8106 3.71828L26.86 0.873423C25.8606 0.524054 24.8362 0.249549 23.7867 0.0499099L23.237 3.01955ZM13.1926 0.848468L14.2421 3.69333C15.0666 3.39387 15.9161 3.16928 16.8156 2.99459L16.2909 0C15.2165 0.224594 14.1921 0.499099 13.1926 0.848468Z" fill="url(#paint0_radial_299_633)"/>
<defs>
<radialGradient id="paint0_radial_299_633" cx="0" cy="0" r="1" gradientUnits="userSpaceOnUse" gradientTransform="translate(20.0294 20.0365) scale(20.0373 20.0123)">
<stop offset="0.372984" stop-color="#FFEA00"/>
<stop offset="0.63006" stop-color="#A6F400"/>
<stop offset="0.801044" stop-color="#36E2A4"/>
<stop offset="0.927083" stop-color="#00B7FF"/>
</radialGradient>
</defs>
</svg>
