<svg width="16" height="16" viewBox="0 0 16 16" fill="none" xmlns="http://www.w3.org/2000/svg">
<g clip-path="url(#clip0_388_2737)">
<path d="M5.5 3.5H2C1.60218 3.5 1.22064 3.65804 0.93934 3.93934C0.658035 4.22064 0.5 4.60218 0.5 5V14C0.5 14.3978 0.658035 14.7794 0.93934 15.0607C1.22064 15.342 1.60218 15.5 2 15.5H12C12.3978 15.5 12.7794 15.342 13.0607 15.0607C13.342 14.7794 13.5 14.3978 13.5 14V10.5" stroke="#171C2B" stroke-linecap="round" stroke-linejoin="round"/>
<path d="M11.5 0.5L15.5 4.5L11.5 8.5" stroke="#171C2B" stroke-linecap="round" stroke-linejoin="round"/>
<path d="M15.5 4.5H10.5C9.43913 4.5 8.42172 4.92143 7.67157 5.67157C6.92143 6.42172 6.5 7.43913 6.5 8.5V10.5" stroke="#171C2B" stroke-linecap="round" stroke-linejoin="round"/>
</g>
<defs>
<clipPath id="clip0_388_2737">
<rect width="16" height="16" fill="white"/>
</clipPath>
</defs>
</svg>
