<svg width="16" height="13" viewBox="0 0 16 13" fill="none" xmlns="http://www.w3.org/2000/svg">
<path d="M2.5 8.5H2C1.60218 8.5 1.22064 8.34196 0.93934 8.06066C0.658035 7.77936 0.5 7.39782 0.5 7V2C0.5 1.60218 0.658035 1.22064 0.93934 0.93934C1.22064 0.658035 1.60218 0.5 2 0.5H10C10.3978 0.5 10.7794 0.658035 11.0607 0.93934C11.342 1.22064 11.5 1.60218 11.5 2V7C11.5 7.39782 11.342 7.77936 11.0607 8.06066C10.7794 8.34196 10.3978 8.5 10 8.5H6.5" stroke="#171C2B" stroke-linecap="round" stroke-linejoin="round"/>
<path d="M13.5 4.5H14C14.3978 4.5 14.7794 4.65804 15.0607 4.93934C15.342 5.22064 15.5 5.60218 15.5 6V11C15.5 11.3978 15.342 11.7794 15.0607 12.0607C14.7794 12.342 14.3978 12.5 14 12.5H6C5.60218 12.5 5.22064 12.342 4.93934 12.0607C4.65804 11.7794 4.5 11.3978 4.5 11V6C4.5 5.60218 4.65804 5.22064 4.93934 4.93934C5.22064 4.65804 5.60218 4.5 6 4.5H9.5" stroke="#171C2B" stroke-linecap="round" stroke-linejoin="round"/>
</svg>
