<svg width="20" height="20" viewBox="0 0 20 20" fill="orange" xmlns="http://www.w3.org/2000/svg">
<g clip-path="url(#clip0_7700_21802)">
<path d="M10 0C4.5 0 0 4.5 0 10C0 15.5 4.5 20 10 20C15.5 20 20 15.5 20 10C20 4.5 15.5 0 10 0ZM10 15C9.25 15 8.75 14.5 8.75 13.75C8.75 13 9.25 12.5 10 12.5C10.75 12.5 11.25 13 11.25 13.75C11.25 14.5 10.75 15 10 15ZM11.25 10C11.25 10.6904 10.6904 11.25 10 11.25C9.30964 11.25 8.75 10.6904 8.75 10V6.25C8.75 5.55964 9.30964 5 10 5C10.6904 5 11.25 5.55964 11.25 6.25V10Z" fill="orange"/>
</g>
<defs>
<clipPath id="clip0_7700_21802">
<rect width="20" height="20" fill="orange"/>
</clipPath>
</defs>
</svg>
