<svg width="35" height="16" viewBox="0 0 35 16" fill="none" xmlns="http://www.w3.org/2000/svg">
<path d="M9.20644 11.6584L9.18706 11.4006L9.43265 11.5062C10.1985 11.8385 10.8157 12.059 11.2778 12.1708C11.4911 12.2236 11.6947 12.2609 11.8918 12.2888C11.8983 12.2826 11.9047 12.2764 11.9112 12.2702C12.2182 11.9534 12.4573 11.5776 12.6286 11.1366C12.7998 10.6957 12.8839 10.2267 12.8839 9.72671C12.8839 9.36646 12.8354 9.02174 12.7352 8.69876C12.635 8.37267 12.4864 8.08075 12.2893 7.81677C12.0889 7.55279 11.8659 7.33851 11.6171 7.17081C11.3683 7.00311 11.1324 6.88199 10.9159 6.80745C10.6961 6.73292 10.4053 6.6646 10.0434 6.60559C10.4053 6.50621 10.6961 6.40994 10.9094 6.31056C11.1259 6.21118 11.3457 6.07453 11.5719 5.89752C11.7981 5.7205 12.0017 5.5 12.1826 5.23292C12.3636 4.96584 12.5025 4.6646 12.6027 4.32298C12.7029 3.98137 12.7514 3.62422 12.7514 3.24845C12.7514 2.77019 12.6641 2.31988 12.4961 1.89752C12.3474 1.53106 12.1374 1.21429 11.8724 0.950311C11.6333 0.723602 11.3327 0.534162 10.9741 0.385093C10.6154 0.236025 10.1953 0.130435 9.71702 0.068323C9.35509 0.0217391 8.74758 0 7.89447 0C7.18355 0 6.33367 0.0155279 5.34161 0.0434783C4.34955 0.0714286 3.48352 0.0869565 2.73705 0.0869565C2.20386 0.0869565 1.48324 0.0776398 0.575201 0.0590062C0.581664 0.583851 0.584895 0.990683 0.584895 1.2795C0.584895 2.08696 0.552581 3.47516 0.487951 5.44721C0.42009 7.41925 0.355461 8.96894 0.2876 10.0994C0.239128 10.9255 0.142184 12.0621 0 13.5093L1.98735 13.5L4.68239 13.5093C5.73585 13.5093 6.73114 13.4969 7.6715 13.4689C8.39858 13.4472 8.9447 13.4193 9.31955 13.3851C9.28723 12.8043 9.24845 12.2267 9.20644 11.6584ZM4.69532 2.66149H6.54049C7.0866 2.66149 7.49377 2.70807 7.76198 2.79814C8.02696 2.8913 8.22085 3.03106 8.34041 3.2205C8.45998 3.41304 8.52137 3.62733 8.52137 3.86957C8.52137 4.04037 8.49229 4.21118 8.43412 4.38199C8.37596 4.55279 8.27578 4.70807 8.13683 4.84472C7.99465 4.98137 7.82984 5.08075 7.63918 5.13975C7.44853 5.19876 7.25141 5.23913 7.04783 5.26398C6.84424 5.28882 6.50494 5.29814 6.02668 5.29814H4.56929L4.69532 2.66149ZM8.51491 9.95031C8.4212 10.1553 8.2984 10.3137 8.14006 10.4317C7.98172 10.5497 7.75229 10.646 7.45176 10.7174C7.20617 10.7764 6.82162 10.8075 6.30136 10.8075H4.33016L4.45619 7.96894H6.61804C7.08337 7.96894 7.42591 7.99379 7.64242 8.04348C7.86215 8.09317 8.04635 8.17391 8.195 8.28571C8.34364 8.39752 8.45674 8.53416 8.5343 8.69876C8.60862 8.86335 8.6474 9.0528 8.6474 9.27019C8.65386 9.52174 8.60539 9.74845 8.51491 9.95031Z" fill="#A1A9B8"/>
<path d="M18.1407 14.4876C18.3346 14.2765 18.4962 14.0342 18.6287 13.7578C18.7709 13.4721 18.884 13.115 18.9648 12.6864C19.052 12.2175 19.1102 11.3199 19.1393 10.0094C19.1748 8.30131 19.2298 6.68951 19.3041 5.17088L19.5981 0.217461C18.5964 0.229883 17.8822 0.236095 17.4557 0.236095C17.1099 0.236095 16.4378 0.229883 15.436 0.214355V1.41311C15.436 2.82926 15.4005 4.50628 15.3326 6.44106C15.2615 8.37895 15.1646 9.7392 15.0321 10.5342C14.9545 10.9845 14.8026 11.3821 14.5797 11.7299C14.4052 11.9845 14.1693 12.1926 13.8752 12.351C13.4874 12.5498 13.048 12.6491 12.5697 12.646C12.1431 12.646 11.6875 12.587 11.2028 12.4659C10.7665 12.3603 10.2172 12.1678 9.55151 11.8914C9.63553 13.0342 9.70662 14.2019 9.76156 15.3945C11.3321 15.7982 12.7184 15.997 13.9205 15.997C14.5829 15.997 15.2033 15.9224 15.785 15.7703C16.3117 15.6336 16.8062 15.4317 17.2715 15.1616C17.6076 14.969 17.8984 14.7423 18.1407 14.4876Z" fill="#A1A9B8"/>
<path d="M34.408 12.0684L31.3639 4.16778L29.8677 0.059082C29.047 0.0715044 28.1551 0.0777156 27.1921 0.0777156C26.6395 0.0777156 25.7606 0.0715044 24.5585 0.059082C24.2644 0.649144 24.035 1.10256 23.8734 1.41933L23.3079 2.49386L19.4721 9.43175C19.4689 9.62741 19.4624 9.81685 19.4592 10.0156C19.4301 11.3324 19.3752 12.233 19.2815 12.7392C19.2298 13.0156 19.1619 13.2641 19.0844 13.4908C19.3073 13.4908 19.5044 13.4877 19.666 13.4877C19.9536 13.4877 20.7324 13.4939 22.0056 13.5063C22.639 12.115 23.2562 10.8386 23.8475 9.68331H29.0082C29.5737 11.1491 30.0099 12.4224 30.3072 13.5063C31.4221 13.4939 32.2687 13.4877 32.8439 13.4877C33.0992 13.4877 33.8166 13.4939 34.9993 13.5063L34.408 12.0684ZM25.0884 6.81685L25.8252 5.36032C26.1386 4.74542 26.5232 3.95349 26.9724 2.99076C27.0467 3.22678 27.4797 4.50318 28.2714 6.81685H25.0884Z" fill="#A1A9B8"/>
</svg>
