<svg width="16" height="15" viewBox="0 0 16 15" fill="none" xmlns="http://www.w3.org/2000/svg">
<path d="M4.5 9C4.22386 9 4 9.22386 4 9.5C4 9.77614 4.22386 10 4.5 10H11.5C11.7761 10 12 9.77614 12 9.5C12 9.22386 11.7761 9 11.5 9H4.5Z" fill="#171C2B"/>
<path fill-rule="evenodd" clip-rule="evenodd" d="M4.5 0C4.77614 0 5 0.223858 5 0.5V1H11V0.5C11 0.223858 11.2239 0 11.5 0C11.7761 0 12 0.223858 12 0.5V1H14C15.1046 1 16 1.89543 16 3V13C16 14.1046 15.1046 15 14 15H2C0.895431 15 0 14.1046 0 13V3C0 1.89543 0.895431 1 2 1H4V0.5C4 0.223858 4.22386 0 4.5 0ZM4 2.5V2H2C1.44772 2 1 2.44772 1 3V5H15V3C15 2.44772 14.5523 2 14 2H12V2.5C12 2.77614 11.7761 3 11.5 3C11.2239 3 11 2.77614 11 2.5V2H5V2.5C5 2.77614 4.77614 3 4.5 3C4.22386 3 4 2.77614 4 2.5ZM1 13V6H15V13C15 13.5523 14.5523 14 14 14H2C1.44772 14 1 13.5523 1 13Z" fill="#171C2B"/>
</svg>
