<svg width="13" height="16" viewBox="0 0 13 16" fill="none" xmlns="http://www.w3.org/2000/svg">
<path d="M11.6666 12.668H4.33325C3.96659 12.668 3.6527 12.5374 3.39159 12.2763C3.13047 12.0152 2.99992 11.7013 2.99992 11.3346V2.0013C2.99992 1.63464 3.13047 1.32075 3.39159 1.05964C3.6527 0.798524 3.96659 0.667969 4.33325 0.667969H8.99992L12.9999 4.66797V11.3346C12.9999 11.7013 12.8694 12.0152 12.6083 12.2763C12.3471 12.5374 12.0333 12.668 11.6666 12.668ZM8.33325 5.33464V2.0013H4.33325V11.3346H11.6666V5.33464H8.33325ZM1.66659 15.3346C1.29992 15.3346 0.98603 15.2041 0.724919 14.943C0.463807 14.6819 0.333252 14.368 0.333252 14.0013V4.66797H1.66659V14.0013H8.99992V15.3346H1.66659Z" fill="#808899"/>
</svg>
