<svg width="16" height="17" viewBox="0 0 16 17" fill="none" xmlns="http://www.w3.org/2000/svg">
<path fill-rule="evenodd" clip-rule="evenodd" d="M1.067 0.5C0.477 0.5 0 0.978 0 1.567V3.7C0 4.29 0.478 4.767 1.067 4.767H3.307C3.47143 5.5702 3.81854 6.32478 4.32142 6.97229C4.82431 7.6198 5.46949 8.14288 6.207 8.501C5.46939 8.85871 4.82409 9.38154 4.32117 10.0289C3.81824 10.6763 3.47122 11.4308 3.307 12.234H1.067C0.477 12.233 0 12.71 0 13.3V15.433C0 16.023 0.478 16.5 1.067 16.5H6.4C6.99 16.5 7.467 16.022 7.467 15.433V13.3C7.467 12.71 6.989 12.233 6.4 12.233H4.401C4.62905 11.3525 5.13229 10.5679 5.83739 9.99337C6.54249 9.41886 7.41262 9.0845 8.321 9.039L8.533 9.033V10.1C8.533 10.69 9.011 11.167 9.6 11.167H14.933C15.523 11.167 16 10.689 16 10.1V6.9C16 6.31 15.522 5.833 14.933 5.833H9.6C9.01 5.833 8.533 6.311 8.533 6.9V7.967C7.58702 7.96695 6.66785 7.65262 5.91993 7.0734C5.17201 6.49418 4.63772 5.68289 4.401 4.767H6.4C6.99 4.767 7.467 4.289 7.467 3.7V1.567C7.467 0.977 6.989 0.5 6.4 0.5H1.067Z" fill="#001133" fill-opacity="0.6"/>
</svg>
