<svg width="15" height="16" viewBox="0 0 15 16" fill="none" xmlns="http://www.w3.org/2000/svg">
<path d="M5.03894 8.47168C2.59712 8.49017 0.71731 9.10058 0.271581 9.24855C-0.0191113 8.06474 0.000268229 7.23237 0.000268229 7.23237V6.97341C1.35683 6.64046 4.225 6.14104 7.22882 6.93642C10.9497 7.91676 13.1783 9.26705 14.6899 9.41503C14.5737 9.84046 14.4186 10.3029 14.2248 10.7838C13.3721 10.4509 12.8876 10.0994 11.221 9.47052C9.45746 8.78613 7.82959 8.45318 5.03894 8.47168ZM13.2946 12.3931C13.5465 12.0601 13.7403 11.7087 13.9147 11.3757C10.7365 10.0439 8.72104 9.95144 5.8335 10.1549C3.25602 10.3399 1.43435 11.1723 1.04676 11.3572C1.41497 12.0601 1.91884 12.7815 2.59712 13.4474C3.17851 13.1329 4.70949 12.4116 7.3451 12.0786C10.3489 11.7272 12.5194 12.1896 13.2946 12.3931ZM4.63197 14.9457C5.44591 15.3896 6.3955 15.741 7.50013 16C9.88381 15.4636 11.5117 14.4092 12.6163 13.2254C8.12028 12.689 5.42653 14.3538 4.63197 14.9457ZM14.9031 8.3422C13.6241 8.39769 11.9574 7.93526 8.99236 6.56647C2.77154 3.68092 0.000268229 4.77225 0.000268229 4.77225V0H15V7.23237C15 7.23237 15 7.6578 14.9031 8.3422ZM7.40324 3.77341L6.91875 3.31098C6.78309 3.42197 6.64744 3.51445 6.51178 3.58844C6.37612 3.66243 6.22109 3.69942 6.00791 3.69942C5.85288 3.69942 5.7366 3.68092 5.60094 3.62543C5.48467 3.56994 5.36839 3.49595 5.29087 3.40347C5.21335 3.31098 5.13584 3.2 5.09708 3.07052C5.03894 2.94104 5.01956 2.81156 5.01956 2.68208V2.66358C5.01956 2.51561 5.03894 2.38613 5.09708 2.27514C5.15522 2.14566 5.21335 2.05318 5.31025 1.9422C5.40715 1.84971 5.50405 1.77572 5.62032 1.72023C5.7366 1.66474 5.87226 1.64624 6.02729 1.64624C6.20171 1.64624 6.35674 1.68324 6.4924 1.73873C6.62806 1.81272 6.76371 1.88671 6.89937 2.01619L7.38386 1.49827C7.30634 1.42428 7.22882 1.35029 7.13192 1.2948C7.03503 1.23931 6.93813 1.18382 6.84123 1.12832C6.72495 1.09133 6.60868 1.05434 6.47302 1.01734C6.33737 0.998844 6.18233 0.980347 6.02729 0.980347C5.75598 0.980347 5.52343 1.01734 5.31025 1.10983C5.09708 1.20231 4.90328 1.31329 4.74825 1.47977C4.59321 1.62775 4.47693 1.81272 4.38004 2.01619C4.28314 2.21965 4.24438 2.44162 4.24438 2.66358V2.68208C4.24438 2.92254 4.28314 3.12601 4.38004 3.34798C4.47693 3.55144 4.59321 3.73642 4.74825 3.88439C4.90328 4.03237 5.09708 4.16185 5.31025 4.23584C5.52343 4.32832 5.75598 4.36532 6.00791 4.36532C6.18233 4.36532 6.31799 4.34682 6.45364 4.32832C6.5893 4.30983 6.70558 4.25433 6.82185 4.21734C6.93813 4.16185 7.03503 4.10636 7.13192 4.03237C7.22882 3.93988 7.30634 3.8659 7.40324 3.77341ZM10.3877 3.32948C10.3877 3.1815 10.3683 3.07052 10.3102 2.95954C10.2714 2.84855 10.1939 2.77457 10.097 2.70058C10.0001 2.62659 9.88381 2.5526 9.74816 2.49711C9.6125 2.44162 9.45746 2.38613 9.28305 2.34913C9.12801 2.31214 9.01174 2.27514 8.91484 2.25665C8.81794 2.21965 8.74042 2.20116 8.68228 2.16416C8.62415 2.12717 8.58539 2.09017 8.56601 2.05318C8.54663 2.01619 8.52725 1.96069 8.52725 1.9237C8.52725 1.84971 8.56601 1.77572 8.64353 1.72023C8.72104 1.66474 8.81794 1.64624 8.97298 1.64624C9.12801 1.64624 9.26367 1.68324 9.4187 1.73873C9.57374 1.79422 9.7094 1.86821 9.86443 1.97919L10.252 1.44277C10.0776 1.31329 9.88381 1.20231 9.67064 1.12832C9.49622 1.01734 9.26367 0.980347 9.01174 0.980347C8.83732 0.980347 8.68228 0.998844 8.52725 1.05434C8.37221 1.10983 8.25593 1.16532 8.15904 1.2578C8.06214 1.35029 7.96524 1.44277 7.9071 1.57225C7.84897 1.68324 7.81021 1.83121 7.81021 1.97919C7.81021 2.14566 7.82959 2.27514 7.88772 2.38613C7.94586 2.49711 8.02338 2.5896 8.12028 2.66358C8.21718 2.73757 8.33345 2.79306 8.46911 2.84855C8.60477 2.90405 8.7598 2.94104 8.93422 2.97803C9.06987 3.01503 9.18615 3.05202 9.28305 3.07052C9.37995 3.10751 9.43808 3.12601 9.49622 3.16301C9.55436 3.2 9.57374 3.2185 9.59312 3.25549C9.6125 3.29249 9.6125 3.32948 9.6125 3.38497V3.40347C9.6125 3.49595 9.57374 3.56994 9.47684 3.62543C9.39933 3.68092 9.26367 3.69942 9.10863 3.69942C8.91484 3.69942 8.74042 3.66243 8.56601 3.58844C8.41097 3.51445 8.23656 3.42197 8.08152 3.29249L7.63579 3.79191C7.84897 3.97688 8.06214 4.10636 8.31407 4.18035C8.56601 4.27283 8.81794 4.30983 9.08925 4.30983C9.28305 4.30983 9.43808 4.29133 9.59312 4.23584C9.74816 4.19884 9.88381 4.12486 9.98071 4.03237C10.097 3.93988 10.1745 3.8474 10.2326 3.71792C10.3683 3.64393 10.3877 3.49595 10.3877 3.32948ZM13.9341 2.42312H12.4419V3.05202H13.1977V3.51445C13.0039 3.64393 12.7714 3.71792 12.4807 3.71792C12.3256 3.71792 12.19 3.69942 12.0543 3.64393C11.938 3.58844 11.8218 3.51445 11.7249 3.42197C11.628 3.32948 11.5698 3.2185 11.5117 3.08902C11.4536 2.95954 11.4342 2.83006 11.4342 2.68208V2.66358C11.4342 2.51561 11.4536 2.38613 11.5117 2.27514C11.5698 2.14566 11.628 2.05318 11.7249 1.96069C11.8218 1.86821 11.9187 1.79422 12.0349 1.73873C12.1512 1.68324 12.2869 1.66474 12.4225 1.66474C12.5194 1.66474 12.6163 1.66474 12.6938 1.68324C12.7714 1.70173 12.8489 1.72023 12.9264 1.75723C13.0039 1.79422 13.062 1.81272 13.1202 1.86821C13.1783 1.9052 13.2558 1.96069 13.314 2.01619L13.7791 1.47977C13.6822 1.40578 13.6047 1.35029 13.5078 1.2948C13.4109 1.23931 13.314 1.18382 13.1977 1.14682C13.0814 1.10983 12.9652 1.07283 12.8489 1.05434C12.752 0.998844 12.6163 0.980347 12.4613 0.980347C12.2094 0.980347 11.9574 1.01734 11.7442 1.10983C11.5311 1.20231 11.3373 1.31329 11.1822 1.47977C11.0272 1.62775 10.8915 1.81272 10.814 2.01619C10.7171 2.21965 10.6784 2.44162 10.6784 2.66358V2.68208C10.6784 2.92254 10.7171 3.14451 10.814 3.34798C10.9109 3.55144 11.0272 3.73642 11.1822 3.88439C11.3373 4.03237 11.5311 4.14335 11.7442 4.23584C11.9574 4.32832 12.2094 4.36532 12.4807 4.36532C12.7907 4.36532 13.062 4.30983 13.314 4.21734C13.5659 4.12486 13.7597 3.99538 13.9341 3.8474V2.42312Z" fill="#A1A9B8"/>
</svg>
