<svg width="21" height="21" viewBox="0 0 21 21" fill="none" xmlns="http://www.w3.org/2000/svg">
<path fill-rule="evenodd" clip-rule="evenodd" d="M19.9875 8.98755H17.675C17.5375 8.52505 17.3375 8.10005 17.1125 7.68755L18.8125 5.98755C19.2 5.60005 19.2 4.96255 18.8125 4.57505L17.4 3.16255C17.2121 2.97645 16.9583 2.87205 16.6938 2.87205C16.4293 2.87205 16.1755 2.97645 15.9875 3.16255L14.2875 4.86255C13.875 4.65005 13.45 4.45005 12.9875 4.31255V1.98755C12.9875 1.43755 12.5375 0.987549 11.9875 0.987549H9.98755C9.43755 0.987549 8.98755 1.43755 8.98755 1.98755V4.31255C8.50005 4.46255 8.05005 4.66255 7.61255 4.90005L5.98755 3.27505C5.61255 2.90005 5.00005 2.90005 4.62505 3.27505L3.27505 4.63755C2.90005 5.01255 2.90005 5.62505 3.27505 6.00005L4.90005 7.62505C4.65005 8.05005 4.45005 8.50005 4.30005 8.98755H1.98755C1.43755 8.98755 0.987549 9.43755 0.987549 9.98755V11.9875C0.987549 12.5375 1.43755 12.9875 1.98755 12.9875H4.30005C4.43755 13.45 4.63755 13.875 4.86255 14.2875L3.16255 15.9875C2.77505 16.375 2.77505 17.0125 3.16255 17.4L4.57505 18.8125C4.96255 19.2 5.60005 19.2 5.98755 18.8125L7.68755 17.1125C8.10005 17.3375 8.52505 17.525 8.98755 17.6625V19.9875C8.98755 20.5375 9.43755 20.9875 9.98755 20.9875H11.9875C12.5375 20.9875 12.9875 20.5375 12.9875 19.9875V17.6625C13.475 17.5125 13.925 17.3125 14.3625 17.075L15.9875 18.7C16.3625 19.075 16.975 19.075 17.35 18.7L18.7125 17.3375C19.0875 16.9625 19.0875 16.35 18.7125 15.975L17.0875 14.35C17.325 13.9125 17.5375 13.4625 17.6875 12.975H20C20.55 12.975 21 12.525 21 11.975V9.97505C20.9917 9.71149 20.8815 9.46143 20.6927 9.27732C20.504 9.09321 20.2512 8.98935 19.9875 8.98755V8.98755ZM10.9875 14.7375C8.91255 14.7375 7.23755 13.0625 7.23755 10.9875C7.23755 8.91255 8.91255 7.23755 10.9875 7.23755C13.0625 7.23755 14.7375 8.91255 14.7375 10.9875C14.7375 13.0625 13.0625 14.7375 10.9875 14.7375V14.7375Z" fill="#001133"/>
</svg>
