<svg width="16" height="16" viewBox="0 0 16 16" fill="none" xmlns="http://www.w3.org/2000/svg">
<path d="M14.6666 10.0001C14.4898 10.0001 14.3202 9.92986 14.1952 9.80484C14.0702 9.67981 14 9.51024 14 9.33343C14 9.15662 14.0702 8.98705 14.1952 8.86203C14.3202 8.737 14.4898 8.66676 14.6666 8.66676H15.966C15.8292 7.0111 15.1779 5.43971 14.1033 4.17276L13.1853 5.09076C13.1238 5.15444 13.0502 5.20523 12.9689 5.24017C12.8876 5.2751 12.8001 5.2935 12.7116 5.29426C12.623 5.29503 12.5353 5.27817 12.4533 5.24465C12.3714 5.21113 12.297 5.16162 12.2344 5.09903C12.1718 5.03643 12.1223 4.962 12.0887 4.88007C12.0552 4.79814 12.0384 4.71035 12.0391 4.62183C12.0399 4.53331 12.0583 4.44583 12.0932 4.3645C12.1282 4.28316 12.179 4.2096 12.2426 4.1481L13.1606 3.2301C11.8937 2.1555 10.3223 1.50419 8.66663 1.36743V2.66676C8.66663 2.84358 8.59639 3.01314 8.47137 3.13817C8.34634 3.26319 8.17677 3.33343 7.99996 3.33343C7.82315 3.33343 7.65358 3.26319 7.52856 3.13817C7.40354 3.01314 7.3333 2.84358 7.3333 2.66676V1.36743C5.45086 1.527 3.68554 2.34729 2.34968 3.68315C1.01382 5.019 0.193535 6.78433 0.0339635 8.66676H1.3333C1.51011 8.66676 1.67968 8.737 1.8047 8.86203C1.92973 8.98705 1.99996 9.15662 1.99996 9.33343C1.99996 9.51024 1.92973 9.67981 1.8047 9.80484C1.67968 9.92986 1.51011 10.0001 1.3333 10.0001H0.0292969C0.165737 11.6236 0.793617 13.1671 1.8293 14.4248L2.0293 14.6668H13.9706L14.1706 14.4248C15.2063 13.1671 15.8342 11.6236 15.9706 10.0001H14.6666ZM8.94263 10.2761C8.69259 10.5261 8.35352 10.6665 7.99996 10.6665C7.64641 10.6665 7.30733 10.5261 7.0573 10.2761C6.6573 9.8761 4.02263 5.9641 3.72396 5.51943C3.68078 5.45529 3.66124 5.37814 3.66868 5.30118C3.67613 5.22422 3.71009 5.15224 3.76477 5.09757C3.81944 5.04289 3.89142 5.00893 3.96838 5.00148C4.04534 4.99404 4.12249 5.01358 4.18663 5.05676C4.6313 5.35543 8.54196 7.9901 8.9433 8.3901C9.06712 8.51396 9.16533 8.661 9.23231 8.82283C9.2993 8.98466 9.33374 9.15809 9.33368 9.33324C9.33362 9.50838 9.29905 9.68179 9.23195 9.84357C9.16486 10.0053 9.06654 10.1523 8.94263 10.2761Z" fill="#0073E5"/>
</svg>
