<svg width="16" height="16" viewBox="0 0 16 16" fill="none" xmlns="http://www.w3.org/2000/svg">
<g clip-path="url(#clip0_9545_2189)">
<path d="M12.0006 4.7981H3.99931C3.11917 4.7981 2.39905 5.51821 2.39905 6.39836V14.3997C2.39905 15.2798 3.11917 15.9999 3.99931 15.9999H12.0006C12.8808 15.9999 13.6009 15.2798 13.6009 14.3997V6.39836C13.6009 5.51821 12.8808 4.7981 12.0006 4.7981ZM12.8007 3.5979H3.19918C3.19918 2.93379 3.73527 2.39771 4.39937 2.39771H11.6005C12.2647 2.39771 12.8007 2.93379 12.8007 3.5979ZM12.0006 1.19751H3.99931C3.99931 0.533402 4.5354 -0.00268555 5.1995 -0.00268555H10.8004C11.4645 -0.00268555 12.0006 0.533402 12.0006 1.19751Z" fill="#0073E5"/>
</g>
<defs>
<clipPath id="clip0_9545_2189">
<rect width="16" height="16" fill="white"/>
</clipPath>
</defs>
</svg>
