<svg width="16" height="16" viewBox="0 0 16 16" fill="none" xmlns="http://www.w3.org/2000/svg">
<g clip-path="url(#clip0_9545_2166)">
<path d="M11.1041 8.604L8.24207 11.742L11.3786 14.8785C11.5755 15.0755 11.8094 15.2318 12.0667 15.3384C12.3241 15.4451 12.6 15.5 12.8786 15.5C13.1572 15.5 13.433 15.4451 13.6904 15.3384C13.9478 15.2318 14.1816 15.0755 14.3786 14.8785C14.5756 14.6815 14.7319 14.4477 14.8385 14.1903C14.9451 13.933 15 13.6571 15 13.3785C15 13.0999 14.9451 12.8241 14.8385 12.5667C14.7319 12.3093 14.5756 12.0755 14.3786 11.8785L11.1041 8.604Z" fill="#0073E5"/>
<path d="M6.6115 5.6115L2 1L0.5 2.5L5.0425 7.0425L6.6115 5.6115Z" fill="#0073E5"/>
<path d="M15.317 2.68294L13.5 4.49994L11.5 2.49994L13.317 0.682938C12.7533 0.485614 12.146 0.447707 11.5621 0.573392C10.9782 0.699077 10.4403 0.983478 10.0077 1.39527C9.57508 1.80706 9.2645 2.33027 9.11017 2.90726C8.95584 3.48426 8.96375 4.09265 9.13303 4.66544L0.826032 12.2419C0.630141 12.4206 0.513247 12.6698 0.501058 12.9347C0.488869 13.1996 0.582382 13.4585 0.761032 13.6544C0.771533 13.6659 0.782032 13.6769 0.793032 13.6879L2.31203 15.2069C2.49956 15.3944 2.75387 15.4997 3.01903 15.4997C3.2842 15.4997 3.5385 15.3944 3.72603 15.2069C3.73703 15.1959 3.74753 15.1849 3.75803 15.1734L11.3345 6.86694C11.9074 7.03699 12.5161 7.04546 13.0935 6.8914C13.6709 6.73735 14.1944 6.42675 14.6064 5.99391C15.0184 5.56107 15.3028 5.02281 15.4282 4.43854C15.5536 3.85427 15.5151 3.24672 15.317 2.68294Z" fill="#0073E5"/>
</g>
<defs>
<clipPath id="clip0_9545_2166">
<rect width="16" height="16" fill="white"/>
</clipPath>
</defs>
</svg>
