<svg width="16" height="16" viewBox="0 0 16 16" fill="none" xmlns="http://www.w3.org/2000/svg">
<path d="M8.00008 0C3.58404 0 0 3.58404 0 8.00008C0 12.4161 3.58404 16.0002 8.00008 16.0002C12.4161 16.0002 16.0002 12.4161 16.0002 8.00008C16.0002 3.58404 12.4161 0 8.00008 0ZM8.80009 13.6001H7.20007V12.0001H8.80009V13.6001ZM10.4561 7.40008L9.7361 8.13608C9.16009 8.72009 8.80009 9.20009 8.80009 10.4001H7.20007V10.0001C7.20007 9.12009 7.56008 8.32008 8.13608 7.73608L9.12809 6.72807C9.4241 6.44007 9.6001 6.04006 9.6001 5.60006C9.6001 4.72005 8.88009 4.00004 8.00008 4.00004C7.12007 4.00004 6.40006 4.72005 6.40006 5.60006H4.80005C4.80005 3.83204 6.23206 2.40002 8.00008 2.40002C9.7681 2.40002 11.2001 3.83204 11.2001 5.60006C11.2001 6.30406 10.9121 6.94407 10.4561 7.40008Z" fill="#667085"/>
</svg>
