<svg width="16" height="17" viewBox="0 0 16 17" fill="none" xmlns="http://www.w3.org/2000/svg">
<path fill-rule="evenodd" clip-rule="evenodd" d="M7 14.5H2V2.5H7C7.55 2.5 8 2.05 8 1.5C8 0.95 7.55 0.5 7 0.5H1C0.45 0.5 0 0.95 0 1.5V15.5C0 16.05 0.45 16.5 1 16.5H7C7.55 16.5 8 16.05 8 15.5C8 14.95 7.55 14.5 7 14.5ZM15.71 7.79L12.71 4.79C12.5217 4.6017 12.2663 4.49591 12 4.49591C11.7337 4.49591 11.4783 4.6017 11.29 4.79C11.1017 4.9783 10.9959 5.2337 10.9959 5.5C10.9959 5.7663 11.1017 6.0217 11.29 6.21L12.59 7.5H6C5.45 7.5 5 7.95 5 8.5C5 9.05 5.45 9.5 6 9.5H12.59L11.3 10.79C11.11 10.97 11 11.22 11 11.5C11.0003 11.698 11.0592 11.8915 11.1692 12.056C11.2792 12.2206 11.4355 12.349 11.6184 12.4249C11.8012 12.5008 12.0025 12.5209 12.1967 12.4827C12.391 12.4444 12.5696 12.3496 12.71 12.21L15.71 9.21C15.89 9.03 16 8.78 16 8.5C16 8.22 15.89 7.97 15.71 7.79Z" fill="#DD1212"/>
</svg>
