<svg width="36" height="32" viewBox="0 0 36 32" fill="none" xmlns="http://www.w3.org/2000/svg">
<path fill-rule="evenodd" clip-rule="evenodd" d="M2.25 16H10.71L15.21 11.5H2.25C1.0125 11.5 0 12.5125 0 13.75C0 14.9875 1.0125 16 2.25 16ZM34.8525 6.9775C35.55 6.2575 36 5.2675 36 4.1875C36 2.005 34.245 0.25 32.0625 0.25C30.9825 0.25 29.9925 0.7 29.2725 1.3975L26.0325 4.6375L31.59 10.195L34.8525 6.9775ZM2.25 7H19.71L24.21 2.5H2.25C1.0125 2.5 0 3.5125 0 4.75C0 5.9875 1.0125 7 2.25 7ZM2.25 20.5C1.0125 20.5 0 21.5125 0 22.75C0 23.83 0.7875 24.685 1.8 24.91L6.21 20.5H2.25ZM24.6375 6.0325L9.585 21.085L15.1425 26.6425L30.195 11.59L24.6375 6.0325V6.0325ZM34.2 11.59L29.79 16H33.75C34.9875 16 36 14.9875 36 13.75C36 12.67 35.2125 11.815 34.2 11.59V11.59ZM4.5 31.75L13.185 28.6225L7.65 23.1325L4.5 31.75ZM33.75 20.5H25.29L20.79 25H33.75C34.9875 25 36 23.9875 36 22.75C36 21.5125 34.9875 20.5 33.75 20.5Z" fill="#5F6B7C"/>
</svg>
