<svg width="67" height="15" viewBox="0 0 67 15" fill="none" xmlns="http://www.w3.org/2000/svg">
<path d="M2.53261 5.88437C2.90382 5.24034 3.39478 4.73605 4.00548 4.3715C4.61618 3.99481 5.29873 3.80646 6.05312 3.80646V6.55878H5.31669C3.46064 6.55878 2.53261 7.43369 2.53261 9.18351V14.0502H0V3.95228H2.53261V5.88437Z" fill="#A1A9B8"/>
<path d="M15.9148 8.61846C15.9148 8.87364 15.8849 9.16528 15.825 9.49337H8.53255C8.56848 10.3926 8.80797 11.0548 9.25102 11.4801C9.69408 11.9054 10.2449 12.1181 10.9035 12.1181C11.4903 12.1181 11.9752 11.9723 12.3584 11.6806C12.7536 11.389 13.005 10.9941 13.1128 10.4959H15.7891C15.6574 11.2007 15.376 11.8325 14.9449 12.3915C14.5138 12.9505 13.957 13.3879 13.2745 13.7039C12.6039 14.0198 11.8555 14.1778 11.0292 14.1778C10.0593 14.1778 9.19714 13.9712 8.44274 13.5581C7.68835 13.1328 7.1016 12.5313 6.68249 11.7536C6.26338 10.9759 6.05382 10.0584 6.05382 9.00123C6.05382 7.94405 6.26338 7.02661 6.68249 6.24891C7.1016 5.45906 7.68835 4.85756 8.44274 4.44441C9.19714 4.03126 10.0593 3.82468 11.0292 3.82468C12.0112 3.82468 12.8673 4.03126 13.5978 4.44441C14.3402 4.85756 14.909 5.42869 15.3041 6.15778C15.7113 6.87472 15.9148 7.69495 15.9148 8.61846ZM13.3643 8.36328C13.4002 7.53697 13.1847 6.91117 12.7176 6.48587C12.2626 6.06056 11.6998 5.84791 11.0292 5.84791C10.3467 5.84791 9.77192 6.06056 9.30491 6.48587C8.8379 6.91117 8.58045 7.53697 8.53255 8.36328H13.3643Z" fill="#A1A9B8"/>
<path d="M21.2871 3.82468C22.5684 3.82468 23.6341 4.17708 24.4843 4.88187C25.3465 5.58666 25.8853 6.54663 26.1009 7.76178H23.4246C23.3168 7.22711 23.0713 6.80788 22.6881 6.5041C22.3049 6.18816 21.82 6.03019 21.2332 6.03019C20.5626 6.03019 19.9998 6.28537 19.5448 6.79573C19.1018 7.29394 18.8802 8.02911 18.8802 9.00123C18.8802 9.97336 19.1018 10.7146 19.5448 11.225C19.9998 11.7232 20.5626 11.9723 21.2332 11.9723C21.82 11.9723 22.3049 11.8204 22.6881 11.5166C23.0713 11.2007 23.3168 10.7754 23.4246 10.2407H26.1009C25.8853 11.4558 25.3465 12.4158 24.4843 13.1206C23.6341 13.8254 22.5684 14.1778 21.2871 14.1778C20.3172 14.1778 19.455 13.9712 18.7006 13.5581C17.9462 13.1328 17.3595 12.5313 16.9404 11.7536C16.5212 10.9759 16.3117 10.0584 16.3117 9.00123C16.3117 7.94405 16.5212 7.02661 16.9404 6.24891C17.3595 5.45906 17.9462 4.85756 18.7006 4.44441C19.455 4.03126 20.3172 3.82468 21.2871 3.82468Z" fill="#A1A9B8"/>
<path d="M29.5349 3.95228V14.0502H27.0023V3.95228H29.5349Z" fill="#A1A9B8"/>
<path d="M34.8257 3.82468C35.6639 3.82468 36.3764 4.02518 36.9631 4.42619C37.5618 4.82719 37.9929 5.36793 38.2564 6.04841V0H40.771V14.0502H38.2564V11.9358C37.9929 12.6163 37.5618 13.1631 36.9631 13.5763C36.3764 13.9773 35.6639 14.1778 34.8257 14.1778C33.9874 14.1778 33.2331 13.9712 32.5625 13.5581C31.8919 13.1449 31.365 12.5495 30.9818 11.7718C30.6106 10.9819 30.425 10.0584 30.425 9.00123C30.425 7.94405 30.6106 7.02661 30.9818 6.24891C31.365 5.45906 31.8919 4.85756 32.5625 4.44441C33.2331 4.03126 33.9874 3.82468 34.8257 3.82468ZM35.616 6.06664C34.8257 6.06664 34.191 6.3279 33.712 6.85041C33.2331 7.37293 32.9936 8.08987 32.9936 9.00123C32.9936 9.9126 33.2331 10.6295 33.712 11.1521C34.191 11.6624 34.8257 11.9176 35.616 11.9176C36.3824 11.9176 37.011 11.6563 37.502 11.1338C38.0049 10.5992 38.2564 9.8883 38.2564 9.00123C38.2564 8.10202 38.0049 7.39116 37.502 6.86864C37.011 6.33397 36.3824 6.06664 35.616 6.06664Z" fill="#A1A9B8"/>
<path d="M44.7007 3.95228V14.0502H42.1681V3.95228H44.7007Z" fill="#A1A9B8"/>
<path d="M50.4225 11.4801L52.9372 3.95228H55.6315L51.9493 14.0502H48.8599L45.1777 3.95228H47.8899L50.4225 11.4801Z" fill="#A1A9B8"/>
<path d="M58.6737 3.95228V14.0502H56.1411V3.95228H58.6737Z" fill="#A1A9B8"/>
<path d="M62.1144 11.8994H67V14.0502H59.3483V12.0087L63.9285 6.08487H59.456V3.95228H66.8204V5.9755L62.1144 11.8994Z" fill="#A1A9B8"/>
<ellipse cx="28.2627" cy="1.51894" rx="1.49682" ry="1.51894" fill="#A1A9B8"/>
<ellipse cx="43.4255" cy="1.51894" rx="1.49682" ry="1.51894" fill="#A1A9B8"/>
<ellipse cx="57.4062" cy="1.51894" rx="1.49682" ry="1.51894" fill="#A1A9B8"/>
</svg>
