<svg width="20" height="15" viewBox="0 0 20 15" fill="none" xmlns="http://www.w3.org/2000/svg">
<path fill-rule="evenodd" clip-rule="evenodd" d="M0 9.5H6.25V5.75H0V9.5ZM1.25 7H5V8.25H1.25V7ZM18.75 0.75H13.75V4.5H20V2C20 1.3125 19.4375 0.75 18.75 0.75ZM18.75 3.25H15V2H18.75V3.25ZM0 2V4.5H6.25V0.75H1.25C0.5625 0.75 0 1.3125 0 2ZM0 13.25C0 13.9375 0.5625 14.5 1.25 14.5H6.25V10.75H0V13.25ZM7.5 4.5H12.5V0.75H7.5V4.5ZM7.5 14.5H12.5V10.75H7.5V14.5ZM8.75 12H11.25V13.25H8.75V12ZM13.75 14.5H18.75C19.4375 14.5 20 13.9375 20 13.25V10.75H13.75V14.5ZM13.75 9.5H20V5.75H13.75V9.5ZM7.5 9.5H12.5V5.75H7.5V9.5Z" fill="#001133"/>
</svg>
