<svg width="16" height="16" viewBox="0 0 16 16" fill="none" xmlns="http://www.w3.org/2000/svg">
<path d="M0.5 12C0.5 11.1716 1.17157 10.5 2 10.5H5.5V15.5H2C1.17157 15.5 0.5 14.8284 0.5 14V12Z" stroke="#171C2B"/>
<path d="M5.5 9C5.5 8.17157 6.17157 7.5 7 7.5H10.5V15.5H5.5V9Z" stroke="#171C2B"/>
<path d="M10.5 6C10.5 5.17157 11.1716 4.5 12 4.5H15.5V14C15.5 14.8284 14.8284 15.5 14 15.5H10.5V6Z" stroke="#171C2B"/>
<path d="M0.5 2C0.5 1.17157 1.17157 0.5 2 0.5H14C14.8284 0.5 15.5 1.17157 15.5 2V14C15.5 14.8284 14.8284 15.5 14 15.5H2C1.17157 15.5 0.5 14.8284 0.5 14V2Z" stroke="#171C2B"/>
</svg>
