<svg width="36" height="32" viewBox="0 0 36 32" fill="none" xmlns="http://www.w3.org/2000/svg">
<path fill-rule="evenodd" clip-rule="evenodd" d="M22.8713 13.75C23.3372 15.065 24.1988 16.2035 25.3377 17.0092C26.4765 17.8149 27.8369 18.2484 29.232 18.25C30.6271 18.2484 31.9875 17.8149 33.1263 17.0092C34.2652 16.2035 35.1268 15.065 35.5928 13.75H36V29.5C36 30.7375 34.9875 31.75 33.75 31.75H2.2725C1.035 31.75 0.0225 30.7375 0.0225 29.5V13.75H22.8713ZM19.71 11.5H0V4.75C0 3.5125 1.0125 2.5 2.25 2.5H6.7455C7.3755 2.5 7.938 2.7475 8.343 3.1525L12.1882 7H17.9888C17.9888 8.728 18.6413 10.3053 19.71 11.5ZM33.7275 4.75C34.965 4.75 35.9775 5.7625 35.9775 7C35.9775 8.2375 34.965 9.25 33.7275 9.25H31.4797V11.5C31.4797 12.7375 30.4673 13.75 29.2297 13.75C27.9945 13.75 26.9842 12.7375 26.9842 11.5V9.25H24.7342C23.4967 9.25 22.4842 8.2375 22.4842 7C22.4842 5.7625 23.4967 4.75 24.7342 4.75H26.9842V2.5C26.9842 1.2625 27.9967 0.25 29.232 0.25C30.4695 0.25 31.482 1.2625 31.482 2.5V4.75H33.7298H33.7275Z" fill="#5F6B7C"/>
</svg>
